<?xml version="1.0" encoding="UTF-8" standalone="no"?>
<!-- Created with Inkscape (http://www.inkscape.org/) -->

<svg
   xmlns:dc="http://purl.org/dc/elements/1.1/"
   xmlns:cc="http://creativecommons.org/ns#"
   xmlns:rdf="http://www.w3.org/1999/02/22-rdf-syntax-ns#"
   xmlns:svg="http://www.w3.org/2000/svg"
   xmlns="http://www.w3.org/2000/svg"
   xmlns:sodipodi="http://sodipodi.sourceforge.net/DTD/sodipodi-0.dtd"
   xmlns:inkscape="http://www.inkscape.org/namespaces/inkscape"
   width="54mm"
   height="54mm"
   viewBox="0 0 191.33858 191.33858"
   id="svg5067"
   version="1.1"
   inkscape:version="0.91 r13725"
   sodipodi:docname="ffww-logo-druckversion.svg">
  <defs
     id="defs5069">
    <filter
       style="color-interpolation-filters:sRGB"
       inkscape:label="Cross Blur"
       id="filter4631-9-0">
      <feColorMatrix
         in="SourceGraphic"
         values="1 0 0 0 0 0 1 0 0 0 0 0 1 0 0 -0.2125 -0.7154 -0.0721 1 0 "
         result="colormatrix"
         id="feColorMatrix4633-7-6" />
      <feComposite
         k1="0"
         in="SourceGraphic"
         in2="colormatrix"
         operator="arithmetic"
         k2="1"
         k3="0"
         k4="0"
         result="composite"
         id="feComposite4635-4-5" />
      <feGaussianBlur
         stdDeviation="1 0.01"
         result="blur1"
         id="feGaussianBlur4637-4-4" />
      <feGaussianBlur
         in="composite"
         stdDeviation="0.01 0.4"
         result="blur2"
         id="feGaussianBlur4639-5-7" />
      <feBlend
         in="blur2"
         in2="blur1"
         mode="darken"
         result="blend"
         id="feBlend4641-4-5" />
    </filter>
    <filter
       style="color-interpolation-filters:sRGB"
       inkscape:label="Cross Blur"
       id="filter4631-6-9">
      <feColorMatrix
         in="SourceGraphic"
         values="1 0 0 0 0 0 1 0 0 0 0 0 1 0 0 -0.2125 -0.7154 -0.0721 1 0 "
         result="colormatrix"
         id="feColorMatrix4633-4-3" />
      <feComposite
         k1="0"
         in="SourceGraphic"
         in2="colormatrix"
         operator="arithmetic"
         k2="1"
         k3="0"
         k4="0"
         result="composite"
         id="feComposite4635-5-9" />
      <feGaussianBlur
         stdDeviation="1 0.01"
         result="blur1"
         id="feGaussianBlur4637-2-1" />
      <feGaussianBlur
         in="composite"
         stdDeviation="0.01 0.4"
         result="blur2"
         id="feGaussianBlur4639-4-3" />
      <feBlend
         in="blur2"
         in2="blur1"
         mode="darken"
         result="blend"
         id="feBlend4641-28-1" />
    </filter>
    <filter
       style="color-interpolation-filters:sRGB"
       inkscape:label="Cross Blur"
       id="filter4631-8">
      <feColorMatrix
         in="SourceGraphic"
         values="1 0 0 0 0 0 1 0 0 0 0 0 1 0 0 -0.2125 -0.7154 -0.0721 1 0 "
         result="colormatrix"
         id="feColorMatrix4633-5" />
      <feComposite
         k1="0"
         in="SourceGraphic"
         in2="colormatrix"
         operator="arithmetic"
         k2="1"
         k3="0"
         k4="0"
         result="composite"
         id="feComposite4635-9" />
      <feGaussianBlur
         stdDeviation="1 0.01"
         result="blur1"
         id="feGaussianBlur4637-42" />
      <feGaussianBlur
         in="composite"
         stdDeviation="0.01 0.4"
         result="blur2"
         id="feGaussianBlur4639-8" />
      <feBlend
         in="blur2"
         in2="blur1"
         mode="darken"
         result="blend"
         id="feBlend4641-282" />
    </filter>
    <filter
       style="color-interpolation-filters:sRGB"
       inkscape:label="Cross Blur"
       id="filter4631-9">
      <feColorMatrix
         in="SourceGraphic"
         values="1 0 0 0 0 0 1 0 0 0 0 0 1 0 0 -0.2125 -0.7154 -0.0721 1 0 "
         result="colormatrix"
         id="feColorMatrix4633-7" />
      <feComposite
         k1="0"
         in="SourceGraphic"
         in2="colormatrix"
         operator="arithmetic"
         k2="1"
         k3="0"
         k4="0"
         result="composite"
         id="feComposite4635-4" />
      <feGaussianBlur
         stdDeviation="1 0.01"
         result="blur1"
         id="feGaussianBlur4637-4" />
      <feGaussianBlur
         in="composite"
         stdDeviation="0.01 0.4"
         result="blur2"
         id="feGaussianBlur4639-5" />
      <feBlend
         in="blur2"
         in2="blur1"
         mode="darken"
         result="blend"
         id="feBlend4641-4" />
    </filter>
    <filter
       style="color-interpolation-filters:sRGB"
       inkscape:label="Cross Blur"
       id="filter4631">
      <feColorMatrix
         in="SourceGraphic"
         values="1 0 0 0 0 0 1 0 0 0 0 0 1 0 0 -0.2125 -0.7154 -0.0721 1 0 "
         result="colormatrix"
         id="feColorMatrix4633" />
      <feComposite
         k1="0"
         in="SourceGraphic"
         in2="colormatrix"
         operator="arithmetic"
         k2="1"
         k3="0"
         k4="0"
         result="composite"
         id="feComposite4635" />
      <feGaussianBlur
         stdDeviation="1 0.01"
         result="blur1"
         id="feGaussianBlur4637" />
      <feGaussianBlur
         in="composite"
         stdDeviation="0.01 0.4"
         result="blur2"
         id="feGaussianBlur4639" />
      <feBlend
         in="blur2"
         in2="blur1"
         mode="darken"
         result="blend"
         id="feBlend4641" />
    </filter>
    <filter
       style="color-interpolation-filters:sRGB"
       inkscape:label="Cross Blur"
       id="filter4631-6">
      <feColorMatrix
         in="SourceGraphic"
         values="1 0 0 0 0 0 1 0 0 0 0 0 1 0 0 -0.2125 -0.7154 -0.0721 1 0 "
         result="colormatrix"
         id="feColorMatrix4633-4" />
      <feComposite
         k1="0"
         in="SourceGraphic"
         in2="colormatrix"
         operator="arithmetic"
         k2="1"
         k3="0"
         k4="0"
         result="composite"
         id="feComposite4635-5" />
      <feGaussianBlur
         stdDeviation="1 0.01"
         result="blur1"
         id="feGaussianBlur4637-2" />
      <feGaussianBlur
         in="composite"
         stdDeviation="0.01 0.4"
         result="blur2"
         id="feGaussianBlur4639-4" />
      <feBlend
         in="blur2"
         in2="blur1"
         mode="darken"
         result="blend"
         id="feBlend4641-28" />
    </filter>
  </defs>
  <sodipodi:namedview
     id="base"
     pagecolor="#ffffff"
     bordercolor="#666666"
     borderopacity="1.0"
     inkscape:pageopacity="0.0"
     inkscape:pageshadow="2"
     inkscape:zoom="2.8797119"
     inkscape:cx="111.8675"
     inkscape:cy="111.79361"
     inkscape:document-units="px"
     inkscape:current-layer="layer1"
     showgrid="false"
     inkscape:window-width="1366"
     inkscape:window-height="709"
     inkscape:window-x="-4"
     inkscape:window-y="0"
     inkscape:window-maximized="1" />
  <metadata
     id="metadata5072">
    <rdf:RDF>
      <cc:Work
         rdf:about="">
        <dc:format>image/svg+xml</dc:format>
        <dc:type
           rdf:resource="http://purl.org/dc/dcmitype/StillImage" />
        <dc:title></dc:title>
      </cc:Work>
    </rdf:RDF>
  </metadata>
  <g
     inkscape:label="Ebene 1"
     inkscape:groupmode="layer"
     id="layer1"
     transform="translate(0,-861.02363)">
    <rect
       style="opacity:1;fill:#dc0067;fill-opacity:1;stroke:none;stroke-width:5;stroke-miterlimit:4;stroke-dasharray:none;stroke-opacity:1"
       id="rect4235"
       width="192.03308"
       height="192.0331"
       x="0.34725738"
       y="861.37079" />
    <path
       style="opacity:1;fill:#ffffff;fill-opacity:1;stroke:none;stroke-width:5;stroke-miterlimit:4;stroke-dasharray:none;stroke-opacity:1"
       id="path4237"
       sodipodi:type="arc"
       sodipodi:cx="95.669289"
       sodipodi:cy="956.69293"
       sodipodi:rx="73.126526"
       sodipodi:ry="72.084755"
       sodipodi:start="0.35504535"
       sodipodi:end="0.32907136"
       sodipodi:open="true"
       d="m 164.23497,981.75196 a 73.126526,72.084755 0 0 1 -93.541103,42.69114 73.126526,72.084755 0 0 1 -43.914609,-91.92933 73.126526,72.084755 0 0 1 92.970782,-43.88503 73.126526,72.084755 0 0 1 45.12201,91.35942" />
    <g
       id="g5025"
       transform="matrix(0.51270402,0,0,0.51011538,356.25895,931.79947)">
      <ellipse
         inkscape:export-ydpi="168.59779"
         inkscape:export-xdpi="168.59779"
         ry="109.56143"
         rx="107.8508"
         style="fill:#009ee0;fill-opacity:1;stroke:#dc0067;stroke-width:5.24933243;stroke-miterlimit:4;stroke-dasharray:none;stroke-opacity:1"
         cx="-508.26529"
         cy="48.800117"
         stroke-miterlimit="4"
         id="circle5307-3-9-3-54" />
      <path
         inkscape:export-ydpi="168.59779"
         inkscape:export-xdpi="168.59779"
         inkscape:connector-curvature="0"
         id="path4942-3-6-8"
         d="m -497.89461,159.17723 c -0.0833,-0.01 -0.3473,-0.033 -0.58672,-0.056 -0.23942,-0.022 -0.6823,-0.081 -0.98417,-0.129 -0.64796,-0.1041 -1.56571,-0.1577 -2.25225,-0.1315 -1.04144,0.04 -2.52104,0.015 -3.08502,-0.052 -0.94689,-0.1124 -1.90052,-0.3086 -2.76327,-0.5683 -0.17696,-0.053 -0.57303,-0.1393 -0.88017,-0.1912 -0.58248,-0.098 -1.37314,-0.2821 -1.91815,-0.4459 -0.17543,-0.053 -0.36956,-0.096 -0.43141,-0.096 -0.0619,0 -0.31009,0.058 -0.55166,0.1295 -0.94786,0.2794 -1.77831,0.4511 -2.76717,0.5722 -0.41949,0.051 -0.82547,0.067 -1.72231,0.067 -1.25583,0 -1.76375,-0.041 -2.77157,-0.2261 -0.27521,-0.05 -0.62526,-0.092 -0.77788,-0.092 -0.42693,0 -1.24109,-0.07 -1.80675,-0.1561 -0.29794,-0.045 -0.85823,-0.091 -1.34378,-0.1087 -1.34372,-0.051 -2.35732,-0.1932 -3.5014,-0.4931 -0.32269,-0.085 -0.81667,-0.1851 -1.09773,-0.2234 -1.76591,-0.2407 -3.45261,-0.7472 -4.89925,-1.4715 -0.35866,-0.1795 -0.41219,-0.1948 -0.90387,-0.2576 -0.28744,-0.037 -0.75587,-0.1095 -1.04095,-0.1617 -0.28508,-0.052 -0.79087,-0.1131 -1.12398,-0.1354 -1.03523,-0.069 -2.02282,-0.2349 -3.02697,-0.5083 l -0.48358,-0.1316 -0.53482,0.042 c -0.67013,0.053 -2.13581,0.022 -2.82494,-0.061 -3.45896,-0.414 -6.55168,-1.8766 -9.02793,-4.2694 l -0.60565,-0.5853 -0.63647,-0.1025 c -1.05388,-0.1697 -2.26756,-0.5013 -3.24228,-0.8859 -0.19843,-0.078 -0.65722,-0.2137 -1.01953,-0.3008 -1.09114,-0.2623 -2.21276,-0.6663 -3.15763,-1.1373 -0.20744,-0.1034 -0.65178,-0.2785 -0.98741,-0.3892 -0.78216,-0.2579 -1.47204,-0.5461 -2.25579,-0.9422 -0.34351,-0.1737 -0.79491,-0.3763 -1.0031,-0.4504 -0.91947,-0.3271 -1.93049,-0.8003 -2.72541,-1.2757 -0.24983,-0.1494 -0.66515,-0.3597 -0.92293,-0.4673 -1.26859,-0.5298 -2.41552,-1.202 -3.62653,-2.1256 -0.19127,-0.1458 -0.58241,-0.4006 -0.8692,-0.566 -0.61717,-0.356 -1.26102,-0.7971 -1.88697,-1.2926 -0.44999,-0.3563 -0.75129,-0.6485 -2.95253,-2.8635 -1.13362,-1.1407 -1.13637,-1.1431 -1.58982,-1.402 -1.29857,-0.7415 -2.33827,-1.5414 -3.36526,-2.5891 -0.31027,-0.3166 -0.97556,-0.9901 -1.47842,-1.4967 -1.22276,-1.2319 -1.902,-2.0893 -2.5755,-3.251 -0.29863,-0.5151 -0.31279,-0.5321 -1.02203,-1.2251 -0.99775,-0.975 -1.5752,-1.6625 -2.27213,-2.7051 -0.17278,-0.2585 -0.45239,-0.6297 -0.62136,-0.8248 -0.16897,-0.1951 -0.42925,-0.5165 -0.57839,-0.7143 -0.14914,-0.1978 -0.46877,-0.5639 -0.71029,-0.8136 -0.9558,-0.9881 -1.92846,-2.345 -2.51793,-3.5127 -0.14943,-0.2959 -0.2472,-0.4265 -0.57071,-0.7619 -0.3766,-0.3905 -0.939,-1.0647 -1.24619,-1.4939 -0.0814,-0.1138 -0.32998,-0.3963 -0.55242,-0.6278 -1.47608,-1.5363 -2.68578,-3.5379 -3.38556,-5.6019 -0.20311,-0.599 -0.4344,-1.057 -0.90787,-1.7975 -0.18508,-0.2895 -0.49181,-0.8225 -0.68162,-1.1844 -0.1898,-0.3619 -0.48654,-0.8864 -0.65943,-1.1655 -0.3762,-0.6075 -0.85517,-1.5594 -1.13407,-2.2538 -0.17196,-0.4282 -0.2446,-0.5575 -0.47508,-0.8459 -1.36602,-1.7096 -2.34639,-3.686302 -2.89141,-5.829902 -0.0841,-0.3308 -0.23865,-0.8258 -0.3434,-1.0999 -0.10474,-0.2741 -0.21867,-0.5955 -0.25317,-0.7143 -0.0345,-0.1189 -0.13572,-0.3609 -0.22492,-0.538 -0.63007,-1.2504 -1.12278,-2.799 -1.37872,-4.3332 -0.12476,-0.7478 -0.15713,-0.8655 -0.3336,-1.2127 -0.56985,-1.1213 -1.10052,-2.8061 -1.31594,-4.1779 -0.12987,-0.8269 -0.35296,-1.6753 -0.60624,-2.3053 -0.11223,-0.2791 -0.27375,-0.7275 -0.35892,-0.9963 -0.0852,-0.2688 -0.25357,-0.7595 -0.3742,-1.0904 -0.12063,-0.3308 -0.25721,-0.7274 -0.30351,-0.8812 -0.0463,-0.1538 -0.1751,-0.4597 -0.28622,-0.6798 -0.26674,-0.5282 -0.57527,-1.2611 -0.77531,-1.8416 -0.0891,-0.2585 -0.27774,-0.7001 -0.41923,-0.9813 -0.9799,-1.9476 -1.52025,-3.9617 -1.64798,-6.1425 -0.0242,-0.413 -0.0412,-0.4892 -0.20605,-0.9231 -0.56534,-1.4879 -0.90496,-3.1473 -0.96555,-4.7177 -0.012,-0.3101 -0.0546,-0.7585 -0.0946,-0.9963 -0.10834,-0.6428 -0.18007,-1.3073 -0.20707,-1.9183 -0.0132,-0.2994 -0.0648,-0.7982 -0.11469,-1.1084 -0.15161,-0.9433 -0.18268,-1.3493 -0.18272,-2.3874 -1e-5,-0.548 -1e-4,-1.3263 -1.8e-4,-1.7295 -6e-4,-3.0417 0.006,-3.1643 0.22645,-4.3614 0.38145,-2.0692 1.2752,-4.2351 2.42342,-5.8731 l 0.2031,-0.2897 -0.3664,-0.5562 c -0.93796,-1.4239 -1.11414,-1.7196 -1.0485,-1.7594 0.0341,-0.021 0.11526,-0.075 0.18041,-0.1216 0.0651,-0.046 0.18917,-0.1168 0.27559,-0.1569 0.0864,-0.04 0.2295,-0.1249 0.31797,-0.1885 0.0885,-0.064 0.18148,-0.1158 0.20673,-0.1158 0.0252,0 0.11211,-0.052 0.19305,-0.1162 0.0809,-0.064 0.20342,-0.1395 0.2722,-0.1681 0.0688,-0.029 0.18764,-0.1031 0.26413,-0.1658 0.0765,-0.063 0.16016,-0.1138 0.18592,-0.1138 0.0258,0 0.10279,-0.048 0.17118,-0.1067 0.0684,-0.059 0.21377,-0.1544 0.32307,-0.2128 0.1093,-0.058 0.19872,-0.12 0.19872,-0.1369 0,-0.017 0.0639,-0.063 0.14195,-0.1029 0.0781,-0.04 0.17602,-0.1094 0.21766,-0.1551 0.0416,-0.046 0.13532,-0.1157 0.20819,-0.1555 0.14742,-0.08 0.40411,-0.2688 0.60565,-0.4445 0.0729,-0.063 0.20735,-0.1787 0.29886,-0.2559 0.42396,-0.3578 1.31782,-1.226897 1.59378,-1.549697 0.0729,-0.085 0.19637,-0.2244 0.27444,-0.3094 0.0781,-0.085 0.14195,-0.1671 0.14195,-0.1825 0,-0.015 0.0619,-0.1016 0.13752,-0.1914 0.0756,-0.09 0.15584,-0.2056 0.17823,-0.2573 0.0224,-0.052 0.0968,-0.1575 0.1653,-0.2351 0.0685,-0.078 0.12459,-0.1637 0.12459,-0.1913 0,-0.028 0.0576,-0.1248 0.12796,-0.216 0.0704,-0.091 0.14767,-0.2274 0.17176,-0.3025 0.0241,-0.075 0.0765,-0.1658 0.11653,-0.2018 0.04,-0.036 0.10095,-0.1522 0.13546,-0.2583 0.0345,-0.1061 0.11012,-0.2691 0.16803,-0.3622 0.0579,-0.093 0.12475,-0.2622 0.14855,-0.3759 0.0238,-0.1138 0.0848,-0.2664 0.13551,-0.3392 0.0564,-0.081 0.11514,-0.2523 0.15113,-0.4408 0.0324,-0.1696 0.10074,-0.3976 0.15189,-0.5067 0.14109,-0.3011 0.12742,-0.4196 -0.0629,-0.5458 -0.0862,-0.057 -0.19391,-0.1245 -0.23939,-0.1497 -0.11371,-0.063 -0.63028,-0.1138 -1.4398,-0.1414 -0.91634,-0.031 -1.873,-0.201 -2.03422,-0.3612 -0.17136,-0.1702 -0.14547,-0.3096 0.10002,-0.5389 0.37541,-0.3506 0.80344,-0.7331 0.91519,-0.8179 0.0608,-0.046 0.24681,-0.1997 0.41337,-0.34119 0.16655,-0.1415 0.36757,-0.3115 0.4467,-0.3777 0.0791,-0.066 0.21078,-0.1797 0.29254,-0.2521 0.0818,-0.072 0.24388,-0.2077 0.36026,-0.3008 0.11638,-0.093 0.28812,-0.2326 0.38165,-0.3102 0.0935,-0.078 0.18262,-0.141 0.19798,-0.141 0.0154,0 0.10375,-0.067 0.19643,-0.1494 0.34901,-0.3096 0.68268,-0.5877 1.03865,-0.8657 0.54153,-0.4229 0.65396,-0.5155 0.99202,-0.8171 0.0873,-0.078 0.23789,-0.2093 0.33457,-0.2921 0.22149,-0.1895 0.3865,-0.3337 0.9072,-0.7931 0.57724,-0.5093 1.60626,-1.5437 1.98117,-1.991504 0.17198,-0.2055 0.36721,-0.4362 0.43384,-0.5127 0.0666,-0.077 0.18076,-0.2168 0.25362,-0.3118 0.0729,-0.095 0.18553,-0.2354 0.25035,-0.312 0.0648,-0.077 0.14827,-0.1985 0.18543,-0.2706 0.0372,-0.072 0.11613,-0.1762 0.17549,-0.2313 0.11662,-0.1082 0.13577,-0.1882 0.06,-0.2506 -0.0294,-0.024 -0.37778,-0.044 -0.899,-0.052 l -0.85106,-0.012 -0.39191,-0.1488 c -0.3149,-0.1196 -0.39921,-0.1676 -0.42906,-0.2444 -0.0571,-0.147 -0.0111,-0.3663 0.10782,-0.5137 0.0591,-0.073 0.14157,-0.1885 0.18321,-0.256 0.0416,-0.067 0.13107,-0.1852 0.19873,-0.2614 0.0677,-0.076 0.12302,-0.1605 0.12302,-0.1872 0,-0.027 0.0443,-0.09 0.0984,-0.1397 0.0541,-0.05 0.13795,-0.1684 0.18631,-0.2627 0.0484,-0.094 0.11606,-0.1947 0.15044,-0.2231 0.0344,-0.028 0.0941,-0.113 0.13267,-0.1881 0.0386,-0.075 0.0983,-0.1598 0.13267,-0.1882 0.0344,-0.028 0.10243,-0.1298 0.15122,-0.2254 0.0488,-0.096 0.11694,-0.1972 0.15142,-0.2256 0.0345,-0.028 0.10422,-0.1331 0.155,-0.2326 0.0508,-0.099 0.10872,-0.181 0.12876,-0.181 0.02,0 0.0728,-0.072 0.1173,-0.1598 0.0445,-0.088 0.13056,-0.2274 0.19131,-0.3102 0.18179,-0.2475 0.29328,-0.4074 0.36337,-0.5211 0.0365,-0.059 0.10396,-0.1606 0.15,-0.2256 0.046,-0.065 0.12724,-0.1984 0.18044,-0.2966 0.0532,-0.098 0.11318,-0.1786 0.1333,-0.1786 0.0201,0 0.0817,-0.089 0.13685,-0.1974 0.0551,-0.1085 0.14912,-0.2529 0.20883,-0.3209 0.0597,-0.068 0.10856,-0.1468 0.10856,-0.1754 0,-0.029 0.0512,-0.1 0.11373,-0.1585 0.0625,-0.059 0.13198,-0.1615 0.15431,-0.2286 0.0223,-0.067 0.0989,-0.1914 0.17017,-0.2762 0.0713,-0.085 0.12958,-0.1753 0.12958,-0.2014 0,-0.026 0.043,-0.093 0.0956,-0.1498 0.0526,-0.056 0.14651,-0.2026 0.20874,-0.3251 0.0622,-0.1224 0.13079,-0.2226 0.15237,-0.2226 0.0216,0 0.0659,-0.063 0.0985,-0.141 0.0326,-0.078 0.10496,-0.2002 0.16082,-0.2726 0.0559,-0.072 0.13266,-0.2025 0.17068,-0.2891 0.038,-0.087 0.0925,-0.1665 0.12109,-0.1774 0.0286,-0.011 0.0927,-0.1113 0.14244,-0.223 0.0498,-0.1118 0.10978,-0.215 0.13339,-0.2295 0.0236,-0.014 0.0933,-0.1254 0.1548,-0.2465 0.0615,-0.1211 0.13118,-0.232 0.15479,-0.2465 0.0236,-0.014 0.0818,-0.1137 0.12934,-0.2204 0.0475,-0.1067 0.11608,-0.2185 0.15235,-0.2484 0.0363,-0.03 0.0988,-0.1308 0.13903,-0.2241 0.0402,-0.093 0.10519,-0.2038 0.14443,-0.2455 0.0393,-0.042 0.0993,-0.1431 0.13346,-0.2255 0.0342,-0.082 0.10056,-0.1922 0.14755,-0.2439 0.047,-0.052 0.11486,-0.1702 0.15081,-0.2632 0.0359,-0.093 0.10408,-0.2115 0.15141,-0.2632 0.0473,-0.052 0.11551,-0.1701 0.15152,-0.2632 0.036,-0.093 0.0974,-0.2032 0.13635,-0.2449 0.039,-0.042 0.0959,-0.1353 0.12661,-0.2082 0.0307,-0.073 0.11663,-0.2224 0.19107,-0.3322 0.0744,-0.1099 0.13534,-0.2222 0.13534,-0.2495 0,-0.027 0.0415,-0.099 0.0922,-0.1586 0.0507,-0.06 0.1214,-0.1838 0.15712,-0.2754 0.0357,-0.092 0.10242,-0.2175 0.14821,-0.2794998 0.0458,-0.062 0.1207,-0.1972 0.16648,-0.3003 0.0458,-0.1031 0.11588,-0.2221 0.1558,-0.2643 0.0399,-0.042 0.099,-0.1512 0.13138,-0.2422 0.0323,-0.091 0.0978,-0.2175 0.14539,-0.281 0.0476,-0.063 0.11677,-0.1955 0.15365,-0.2935 0.0369,-0.098 0.084,-0.1886 0.10468,-0.2013 0.0207,-0.013 0.094,-0.146 0.16294,-0.2963 0.0689,-0.1502 0.14324,-0.2841 0.16514,-0.2976 0.0219,-0.014 0.0739,-0.1148 0.11548,-0.2253 0.0416,-0.1104 0.12789,-0.2826 0.19172,-0.3826 0.0638,-0.1 0.11605,-0.2099 0.11605,-0.2444 0,-0.034 0.0455,-0.1284 0.10101,-0.2088 0.0556,-0.08 0.13237,-0.2272 0.1707,-0.3262 0.0383,-0.099 0.11145,-0.2427 0.16249,-0.3195 0.051,-0.077 0.11767,-0.2099 0.14807,-0.2958 0.0304,-0.086 0.0974,-0.2212 0.14892,-0.3008 0.0515,-0.08 0.11459,-0.2123 0.14016,-0.2951 0.0256,-0.083 0.0844,-0.2011 0.13062,-0.2631 0.0463,-0.062 0.11335,-0.2007 0.14906,-0.3081 0.0357,-0.1074 0.0997,-0.2392 0.14223,-0.2929 0.0425,-0.054 0.1087,-0.2006 0.14709,-0.3266 0.0384,-0.1259 0.10317,-0.2648 0.14394,-0.3087 0.0408,-0.044 0.10142,-0.172 0.13476,-0.2849 0.0333,-0.1128 0.1014,-0.2651 0.15123,-0.3383 0.0498,-0.073 0.1171,-0.2263 0.14948,-0.34 0.0324,-0.1138 0.102,-0.2648 0.1547,-0.3357 0.0527,-0.071 0.10682,-0.1893 0.12026,-0.2632 0.0263,-0.1445 0.10707,-0.3254 0.18592,-0.4163 0.0269,-0.031 0.0747,-0.1553 0.10634,-0.2761 0.0316,-0.1209 0.0993,-0.2816 0.15059,-0.3572 0.0513,-0.076 0.11381,-0.22649998 0.13902,-0.33529998 0.0252,-0.1088 0.0876,-0.2588 0.13855,-0.3335 0.051,-0.075 0.11858,-0.2394 0.15022,-0.3661 0.0316,-0.1268 0.0923,-0.2789 0.13475,-0.338 0.0425,-0.059 0.11482,-0.2284 0.16075,-0.376 0.0459,-0.1476 0.14849,-0.35820002 0.22791,-0.46790002 0.11937,-0.1648 0.16158,-0.1974 0.24349,-0.1879 0.083,0.01 0.11011,0.044 0.16695,0.2146 0.0373,0.1118 0.10825,0.25100002 0.15762,0.30930002 0.0494,0.058 0.11031,0.1698 0.13543,0.2479 0.0251,0.078 0.0855,0.1845 0.13427,0.2365 0.0487,0.052 0.11538,0.1699 0.14812,0.2621 0.0327,0.092 0.0922,0.2021 0.13211,0.2443 0.0399,0.042 0.10987,0.1611 0.15546,0.2643 0.0456,0.1031 0.13158,0.243 0.19111,0.311 0.0595,0.068 0.10823,0.147 0.10823,0.1757 0,0.029 0.0429,0.10289998 0.0954,0.16479998 0.0525,0.062 0.13055,0.1915 0.17352,0.288 0.043,0.096 0.11005,0.2072 0.14908,0.2459 0.039,0.039 0.10716,0.141 0.1514,0.2271 0.0443,0.086 0.13012,0.2248 0.19084,0.308 0.0607,0.083 0.11039,0.1713 0.11039,0.1956 0,0.024 0.0443,0.085 0.0984,0.1353 0.0541,0.05 0.13993,0.1673 0.19072,0.2604 0.0508,0.093 0.13002,0.2223 0.17606,0.2872 0.046,0.065 0.11354,0.1664 0.14999,0.2256 0.0365,0.059 0.1046,0.1607 0.15142,0.2256 0.0468,0.065 0.11495,0.1664 0.15141,0.2256 0.0956,0.1551 0.23611,0.3536 0.34225,0.4835 0.0507,0.062 0.12731,0.1816 0.17026,0.2657 0.0429,0.084 0.10622,0.1761 0.1406,0.2044 0.0344,0.028 0.10296,0.1309 0.15242,0.2278 0.0495,0.097 0.11557,0.186 0.14692,0.198 0.0314,0.012 0.10127,0.1029 0.15538,0.2021 0.10304,0.1889 0.30617,0.4905 0.43803,0.6503 0.0865,0.1049 0.20518,0.2736 0.37022,0.5264 0.0608,0.093 0.15564,0.2284 0.21086,0.3008 0.13655,0.179 0.27266,0.373 0.35234,0.5023 0.0365,0.059 0.10459,0.1607 0.15141,0.2256 0.0468,0.065 0.11496,0.1671 0.15142,0.227 0.0365,0.06 0.11083,0.1614 0.16528,0.2256 0.0545,0.064 0.13412,0.1854 0.17704,0.2695 0.0429,0.084 0.10616,0.1761 0.14053,0.2044 0.0344,0.028 0.10404,0.133 0.15482,0.2325 0.0508,0.099 0.10669,0.181 0.12425,0.181 0.0176,0 0.0852,0.099 0.15033,0.2206 0.0651,0.1213 0.14512,0.2426 0.1778,0.2696 0.0327,0.027 0.0849,0.1095 0.11601,0.1835 0.0311,0.074 0.0967,0.1769 0.14571,0.2286 0.049,0.052 0.11618,0.1594 0.14928,0.2393 0.0331,0.08 0.11133,0.2031998 0.17386,0.2738998 0.0625,0.071 0.11368,0.1521 0.11368,0.1808 0,0.029 0.0429,0.1029 0.0954,0.1648 0.0525,0.062 0.12823,0.1864 0.16838,0.2765 0.0401,0.09 0.11645,0.2044 0.16958,0.254 0.12105,0.113 0.12274,0.2306 0.005,0.3663 -0.0862,0.1 -0.11143,0.1062 -0.44868,0.1184 -0.22756,0.01 -0.47282,-0.01 -0.67521,-0.049 -0.44102,-0.085 -1.15047,-0.1207 -1.22294,-0.061 -0.0582,0.048 -0.0443,0.1328 0.0375,0.2283 0.0266,0.031 0.0815,0.1794 0.12207,0.3297 0.0406,0.1503 0.11663,0.3364 0.169,0.4136 0.0524,0.077 0.11619,0.208 0.14183,0.2907 0.0256,0.083 0.0855,0.2022 0.13309,0.2656 0.0476,0.063 0.11441,0.1815 0.14854,0.2626 0.0341,0.081 0.0933,0.1816 0.13151,0.2232 0.0382,0.042 0.0993,0.135 0.13584,0.2073 0.0365,0.072 0.12315,0.1993 0.19257,0.282 0.0694,0.083 0.16784,0.2012 0.21873,0.2632 0.44647,0.5442 0.88827,0.9911 1.44276,1.4591 0.18737,0.1582 0.38326,0.3284 0.43531,0.3781 0.0521,0.05 0.15087,0.1187 0.2196,0.1532 0.0687,0.035 0.13471,0.088 0.14662,0.1187 0.0119,0.031 0.0919,0.091 0.17785,0.1347 0.0859,0.043 0.21216,0.1271 0.28055,0.1864 0.0684,0.059 0.13975,0.1077 0.15857,0.1077 0.0188,0 0.11296,0.068 0.20918,0.1504 0.0962,0.083 0.19077,0.1504 0.21012,0.1504 0.0413,0 0.48276,0.2869 0.69298,0.4504 0.0803,0.062 0.16844,0.1135 0.19583,0.1135 0.0274,0 0.12682,0.058 0.22097,0.1298 0.0942,0.071 0.23599,0.1652 0.31519,0.2083 0.0792,0.043 0.19748,0.1159 0.26284,0.1616 0.0654,0.046 0.16757,0.1127 0.22712,0.149 0.0596,0.036 0.16176,0.1038 0.22712,0.1503 0.1179,0.084 0.21993,0.148 0.52386,0.329 0.0868,0.052 0.20767,0.133 0.26858,0.1807 0.14607,0.1144 0.33671,0.2434 0.54605,0.3697 0.0937,0.057 0.2335,0.1545 0.3107,0.2179 0.0772,0.063 0.21795,0.1745 0.31279,0.2468 0.0948,0.072 0.25017,0.1953 0.34519,0.2732 0.095,0.078 0.22329,0.1674 0.28502,0.1992 0.13304,0.068 0.19156,0.1986 0.15988,0.3559 -0.0232,0.1153 -0.17041,0.2621 -0.26285,0.2621 -0.0277,0 -0.10865,0.051 -0.17989,0.1129 -0.0712,0.062 -0.20268,0.1386 -0.29208,0.17 -0.0894,0.031 -0.21482,0.096 -0.2787,0.1444 -0.0639,0.048 -0.20985,0.1176 -0.32435,0.1544 -0.11451,0.037 -0.24555,0.1006 -0.2912,0.1419 -0.0457,0.041 -0.18846,0.099 -0.31733,0.1288 -0.12889,0.03 -0.28832,0.095 -0.3543,0.1446 -0.066,0.05 -0.21276,0.1101 -0.32617,0.1336 -0.1134,0.024 -0.28285,0.09 -0.37653,0.1468 -0.0937,0.057 -0.2552,0.1244 -0.35892,0.1492 -0.184,0.044 -0.41926,0.1682 -0.61366,0.3237 l -0.0965,0.077 0.0854,0.1672 c 0.0929,0.1819 0.20945,0.3285 0.49171,0.6184 0.21446,0.2202 0.5099,0.47 0.55601,0.47 0.0177,0 0.0915,0.049 0.16391,0.1077 0.0724,0.059 0.22053,0.1457 0.32918,0.1921 0.10864,0.046 0.21708,0.1078 0.24097,0.1364 0.0239,0.029 0.16495,0.088 0.31348,0.1311 0.14852,0.043 0.32244,0.1109 0.38648,0.1497 0.064,0.039 0.23438,0.097 0.37853,0.1291 0.14415,0.032 0.35578,0.099 0.47028,0.1489 0.11451,0.05 0.37001,0.118 0.5678,0.1518 0.19778,0.034 0.43471,0.094 0.52652,0.1346 0.0918,0.04 0.35737,0.106504 0.59014,0.147304 0.23277,0.041 0.49833,0.107 0.59014,0.1473 0.0918,0.04 0.28206,0.093 0.42278,0.1172 0.39082,0.067 0.47388,0.2148 0.35019,0.6216 -0.0691,0.2273 -0.37686,0.5133 -0.67236,0.6249 -0.10655,0.04 -0.26297,0.1125 -0.34761,0.1607 -0.0846,0.048 -0.19605,0.1002 -0.2476,0.1155 -0.14597,0.043 -0.41738,0.2867 -0.41663,0.3732 6.1e-4,0.068 0.16147,0.2517 0.51035,0.5821 0.0625,0.059 0.15575,0.12 0.20731,0.1353 0.0516,0.015 0.1739,0.082 0.27185,0.1494 0.098,0.067 0.24315,0.1335 0.32264,0.148 0.0795,0.014 0.2194,0.067 0.31091,0.1179 0.0967,0.053 0.33447,0.1225 0.56779,0.1654 0.22078,0.041 0.55472,0.1146 0.74209,0.1644 0.1942,0.052 0.51971,0.102 0.75706,0.117 0.25057,0.016 0.44971,0.048 0.50007,0.08 0.22453,0.1423 0.17223,0.6275 -0.10253,0.9512 -0.0898,0.1058 -0.17712,0.1924 -0.19397,0.1924 -0.0168,0 -0.0822,0.05 -0.14523,0.1113 -0.063,0.061 -0.18711,0.1302 -0.27574,0.1533 -0.0886,0.023 -0.25305,0.085 -0.36539,0.1368 -0.21227,0.098 -0.3073,0.1109 -1.51805,0.1984 -0.30187,0.022 -0.65959,0.066 -0.79491,0.098 -0.13532,0.032 -0.38003,0.083 -0.54379,0.1116 -0.32634,0.058 -0.40253,0.099 -0.40253,0.218 0,0.19839 0.16838,0.84109 0.24784,0.94599 0.047,0.062 0.10701,0.1889 0.13334,0.282 0.0264,0.093 0.0867,0.2115 0.13415,0.2632 0.0474,0.052 0.12062,0.1711 0.16262,0.2655 0.042,0.094 0.11279,0.2043 0.15731,0.2443 0.0445,0.04 0.10729,0.1233 0.13948,0.1852 0.0322,0.062 0.10284,0.1584 0.157,0.2146 0.0542,0.056 0.1581,0.1733 0.23096,0.2604 0.17335,0.207 1.00158,1.0354 1.36271,1.3629 0.15614,0.1416 0.45492,0.3733 0.66396,0.5149 0.20903,0.1415 0.51172,0.3766 0.67263,0.5223 0.16092,0.1457 0.30532,0.2649 0.3209,0.2649 0.0485,0 0.31086,-0.189 0.31086,-0.2239 0,-0.018 0.0639,-0.072 0.14195,-0.1184 0.0781,-0.047 0.20581,-0.1455 0.28386,-0.2193 0.26256,-0.248 0.90254,-0.8098 1.54474,-1.3559 0.31684,-0.2695 0.6703,-0.5929 1.00621,-0.9207 0.14866,-0.145 0.31899,-0.3076 0.37853,-0.3613 0.28049,-0.2529 1.36654,-1.4477 1.75486,-1.9306 0.1824,-0.22679 0.43473,-0.53249 0.6339,-0.76799 0.0676,-0.08 0.16843,-0.2279 0.22409,-0.3288 0.0557,-0.101 0.15793,-0.2367 0.22725,-0.3015 0.0693,-0.065 0.12606,-0.1516 0.12606,-0.1928 0,-0.1611 -0.0648,-0.1713 -1.12804,-0.178 -0.63444,0 -1.05292,-0.022 -1.12421,-0.048 -0.86589,-0.3198 -0.9274,-0.3616 -0.9274,-0.6303 0,-0.2124 0.0404,-0.307 0.20323,-0.4761 0.0739,-0.077 0.16854,-0.2061 0.2104,-0.2876 0.0419,-0.082 0.13678,-0.1854 0.21094,-0.2309 0.0742,-0.045 0.16657,-0.1445 0.20534,-0.22 0.0388,-0.076 0.10823,-0.171 0.15433,-0.2124 0.0461,-0.041 0.12324,-0.1524 0.17141,-0.2467 0.0482,-0.094 0.11545,-0.1946 0.1495,-0.2226 0.10318,-0.085 0.24975,-0.3629 0.2251,-0.4267 -0.0142,-0.037 0.0127,-0.093 0.0698,-0.1459 0.0511,-0.047 0.13604,-0.1706 0.18868,-0.274 0.0526,-0.1034 0.13344,-0.2219 0.17958,-0.2632 0.0461,-0.041 0.12279,-0.1514 0.17034,-0.2444 0.0476,-0.093 0.12422,-0.203 0.17039,-0.2444 0.0462,-0.041 0.13131,-0.1682 0.18921,-0.282 0.0579,-0.113704 0.14306,-0.240604 0.18922,-0.282004 0.0462,-0.041 0.12284,-0.1513 0.17039,-0.2444 0.0475,-0.093 0.12456,-0.203 0.17115,-0.2443 0.0466,-0.041 0.11488,-0.1447 0.15177,-0.2295 0.0369,-0.085 0.11756,-0.2117 0.17927,-0.282 0.0617,-0.07 0.14674,-0.1954 0.18897,-0.2781 0.0422,-0.083 0.11486,-0.1842 0.16141,-0.2256 0.0465,-0.041 0.117,-0.1497 0.15655,-0.2407 0.0396,-0.091 0.12419,-0.2246 0.18809,-0.2969 0.0639,-0.072 0.14651,-0.2008 0.18359,-0.2857 0.0371,-0.085 0.11293,-0.1961 0.16857,-0.2472 0.0556,-0.051 0.13521,-0.1696 0.17684,-0.2632 0.0416,-0.094 0.12436,-0.221 0.18386,-0.283 0.0595,-0.062 0.13619,-0.1805 0.17041,-0.2632 0.0342,-0.083 0.10484,-0.1946 0.15692,-0.2486 0.0521,-0.054 0.14246,-0.1978 0.20085,-0.3196 0.0584,-0.1217 0.14403,-0.2549 0.19032,-0.2958 0.0463,-0.041 0.10808,-0.1313 0.1373,-0.2007 0.0292,-0.069 0.0974,-0.1786 0.15153,-0.2425 0.0541,-0.064 0.14848,-0.2215 0.20971,-0.3502 0.0612,-0.1287 0.137,-0.2438 0.16837,-0.2558 0.0314,-0.012 0.10495,-0.1278 0.16351,-0.2574 0.0585,-0.1296 0.13739,-0.2611 0.17519,-0.2921 0.0378,-0.031 0.10992,-0.1494 0.16028,-0.2632 0.0504,-0.1137 0.13185,-0.2491 0.18109,-0.3007 0.0492,-0.052 0.1312,-0.1871 0.18213,-0.3008 0.0509,-0.1138 0.13648,-0.2473 0.19009,-0.2968 0.0536,-0.05 0.12429,-0.1702 0.15706,-0.2682 0.0328,-0.098 0.0955,-0.2098 0.13944,-0.2484 0.0439,-0.039 0.12714,-0.1728 0.18493,-0.2983 0.0578,-0.1255 0.13475,-0.2523 0.17101,-0.282 0.0363,-0.03 0.11579,-0.1638 0.17673,-0.2982 0.061,-0.1345 0.15046,-0.2867 0.19891,-0.3384 0.0485,-0.052 0.12027,-0.1786 0.15959,-0.282 0.0393,-0.1034 0.1343,-0.2697 0.21108,-0.3695 0.0768,-0.1 0.13961,-0.2038 0.13961,-0.2312 0,-0.027 0.0615,-0.1403 0.13677,-0.2509 0.0752,-0.1106 0.17829,-0.294 0.22905,-0.4076 0.0508,-0.1135 0.12406,-0.2404 0.1629,-0.282 0.0388,-0.042 0.11359,-0.1726 0.1661,-0.2912 0.0525,-0.1187 0.1377,-0.271 0.18929,-0.3384 0.0516,-0.068 0.12802,-0.2125 0.16985,-0.3223 0.0418,-0.1098 0.11921,-0.2558 0.17196,-0.3245 0.0527,-0.069 0.13813,-0.2197 0.18975,-0.3357 0.0516,-0.1159 0.13537,-0.266 0.1861,-0.3335 0.0507,-0.067 0.11287,-0.1866 0.13808,-0.2647 0.0252,-0.078 0.10249,-0.2257 0.17173,-0.3279 0.0692,-0.1022 0.14486,-0.2429 0.16806,-0.3127 0.0232,-0.07 0.0955,-0.2099 0.16062,-0.3113 0.0651,-0.1014 0.15791,-0.2837 0.20613,-0.4051 0.0482,-0.1213 0.12883,-0.2742 0.17911,-0.3397 0.0503,-0.065 0.11967,-0.203 0.1542,-0.3057 0.0345,-0.1026 0.11388,-0.2582 0.17634,-0.3455998 0.0624,-0.087 0.14682,-0.255 0.18749,-0.3724 0.0407,-0.1174 0.11748,-0.2701 0.17072,-0.3395 0.0532,-0.069 0.13028,-0.2232 0.17122,-0.3419 0.0409,-0.1188 0.1227,-0.2836 0.18168,-0.3663 0.059,-0.083 0.13771,-0.2435 0.17493,-0.3572 0.0372,-0.1138 0.11576,-0.2745 0.17453,-0.3572 0.0588,-0.083 0.13953,-0.2556 0.17949,-0.3843 0.04,-0.1286 0.1152,-0.284 0.16721,-0.3454 0.052,-0.061 0.12985,-0.2269 0.17297,-0.3678 0.0431,-0.1408 0.12219,-0.3149 0.17571,-0.3869 0.0535,-0.072 0.13145,-0.2446 0.17317,-0.3838 0.0417,-0.1392 0.11599,-0.3004 0.16503,-0.3583 0.049,-0.058 0.12692,-0.2311 0.17306,-0.385 0.0461,-0.1539 0.12616,-0.3349 0.17781,-0.4022 0.0517,-0.067 0.12817,-0.2372 0.17002,-0.3778 0.0419,-0.1405 0.12615,-0.334 0.18733,-0.4299 0.0612,-0.096 0.14249,-0.2863 0.18069,-0.4231 0.0382,-0.1368 0.11312,-0.3122 0.1665,-0.3896 0.0534,-0.077 0.12516,-0.2501 0.1595,-0.3836 0.0805,-0.3129 0.1423,-0.4283 0.25724,-0.4803 0.0701,-0.032 0.10468,-0.091 0.14041,-0.2423 0.05,-0.2113 0.12692,-0.3882 0.20975,-0.4825 0.0274,-0.031 0.0869,-0.192 0.13221,-0.3572 0.0812,-0.29639998 0.27648,-0.66519998 0.42067,-0.79479998 0.10887,-0.098 0.18722,-0.029 0.28437,0.2482 0.0453,0.1294 0.11842,0.2735 0.1625,0.32009998 0.0441,0.047 0.11418,0.1737 0.15581,0.2826 0.0416,0.1088 0.12164,0.2576 0.1778,0.3308 0.0562,0.073 0.1451,0.2353 0.19766,0.3604 0.073,0.1738 0.11774,0.2324 0.18964,0.2487 0.0693,0.016 0.12399,0.082 0.20766,0.2535 0.0624,0.1277 0.15025,0.2711 0.19509,0.3187 0.0449,0.048 0.1085,0.1514 0.14144,0.2308 0.0329,0.079 0.10508,0.1977 0.16032,0.2629 0.0552,0.065 0.13262,0.1931 0.17197,0.2843 0.0393,0.091 0.12106,0.2218 0.18159,0.2903 0.0605,0.068 0.1461,0.2055 0.19018,0.3045 0.0441,0.099 0.12071,0.2223 0.1703,0.274 0.0496,0.052 0.12312,0.1701 0.1634,0.2631 0.0403,0.093 0.11135,0.2031 0.15794,0.2444 0.0466,0.041 0.1241,0.1524 0.17225,0.2467 0.0481,0.094 0.14851,0.244 0.22303,0.3325 0.0745,0.089 0.13547,0.1833 0.13547,0.2104 0,0.027 0.061,0.1218 0.13548,0.2103 0.0745,0.089 0.17488,0.2383 0.22303,0.3326 0.0482,0.094 0.1253,0.2053 0.17143,0.2467 0.0461,0.041 0.1228,0.1513 0.17034,0.2443 0.0476,0.093 0.12422,0.2031 0.17039,0.2444 0.0462,0.041 0.13131,0.1683 0.18922,0.282 0.0579,0.1138 0.14305,0.2406 0.18921,0.282 0.0462,0.041 0.12389,0.1535 0.17272,0.2491 0.0488,0.096 0.11444,0.1837 0.14579,0.1956 0.0313,0.012 0.10024,0.1065 0.15309,0.2101 0.0529,0.1036 0.14495,0.244 0.20464,0.312 0.0597,0.068 0.14333,0.1912 0.18587,0.2739 0.0425,0.083 0.12999,0.2001 0.19436,0.2609 0.0644,0.061 0.11702,0.1308 0.11702,0.1557 0,0.025 0.0681,0.1271 0.15128,0.2271 0.0832,0.1 0.19667,0.2752 0.25215,0.3894 0.0555,0.1141998 0.11501,0.2330998 0.13228,0.2640998 0.0173,0.031 0.0746,0.137 0.12736,0.2356 0.0528,0.099 0.22448,0.3101 0.38156,0.47 0.15708,0.1599 0.32514,0.3669 0.37346,0.4599 0.0483,0.093 0.1256,0.203 0.17174,0.2444 0.0461,0.041 0.12702,0.1598 0.17974,0.2632 0.0527,0.1034 0.15308,0.2545 0.22303,0.3357 0.0699,0.081 0.12717,0.1701 0.12717,0.1973 0,0.027 0.0574,0.113 0.12748,0.1906 0.0701,0.078 0.16568,0.2173 0.21236,0.3103 0.0467,0.093 0.12467,0.2115 0.17331,0.2632 0.0486,0.052 0.1228,0.1712 0.1648,0.2656 0.042,0.094 0.11362,0.2043 0.15916,0.2443 0.0455,0.04 0.12958,0.1745 0.18677,0.2986 0.0572,0.1241 0.14198,0.2595 0.18845,0.3008 0.0465,0.041 0.11596,0.1475 0.15443,0.236 0.0385,0.089 0.12881,0.2375 0.20074,0.3311 0.0719,0.094 0.14124,0.2174 0.15401,0.2751 0.0128,0.058 0.0821,0.1617 0.15396,0.2309 0.16138,0.1554 0.17495,0.3191 0.0394,0.4755 -0.0891,0.1029 -0.10234,0.1058 -0.5394,0.1181 -0.32332,0.01 -0.57987,-0.01 -0.92127,-0.064 -0.26024,-0.042 -0.66136,-0.088 -0.8914,-0.102 -0.36491,-0.022 -0.42644,-0.017 -0.48262,0.039 -0.0836,0.083 -0.0819,0.098 0.0296,0.2609 0.0517,0.076 0.12929,0.2768 0.17239,0.447 0.044,0.1738 0.12483,0.3753 0.18442,0.4598 0.0583,0.083 0.13511,0.2383 0.17062,0.3457 0.0355,0.1074 0.10563,0.2512 0.15583,0.3195 0.0502,0.068 0.13524,0.2174 0.18899,0.3311 0.0537,0.1138 0.13755,0.2491 0.18623,0.3008 0.0487,0.052 0.13147,0.1786 0.18398,0.282 0.0525,0.1034 0.1306,0.2091 0.17352,0.2348 0.0429,0.026 0.11327,0.1153 0.15634,0.1992 0.0431,0.084 0.10368,0.1621 0.13469,0.1739 0.031,0.012 0.11022,0.099 0.17603,0.1943 0.0658,0.095 0.27387,0.3333 0.46238,0.5296 0.54209,0.5646 0.44519,0.4748 1.24792,1.1577 0.12673,0.1079 0.30876,0.2644 0.40451,0.3478 0.0958,0.083 0.19051,0.1518 0.21058,0.1518 0.02,0 0.0865,0.052 0.14765,0.1163 0.0611,0.064 0.19038,0.1564 0.2872,0.2055 0.0968,0.049 0.25541,0.1575 0.35244,0.2409 0.097,0.083 0.19775,0.1516 0.22381,0.1516 0.0261,0 0.0957,0.05 0.15473,0.1113 0.059,0.061 0.18572,0.1478 0.28152,0.1925 0.0958,0.045 0.23256,0.1321 0.30391,0.1942 0.0714,0.062 0.1857,0.1362 0.2541,0.1646 0.0684,0.028 0.18036,0.1002 0.2488,0.1596 0.0684,0.059 0.2299,0.1607 0.35881,0.2251 0.12892,0.064 0.24815,0.1406 0.26498,0.1692 0.0168,0.029 0.10723,0.09 0.20092,0.1373 0.0937,0.047 0.21972,0.1263 0.28007,0.1764 0.0604,0.05 0.20515,0.139 0.32175,0.1975 0.11661,0.059 0.24574,0.1435 0.28695,0.1888 0.0412,0.045 0.13215,0.1062 0.20207,0.1352 0.0699,0.029 0.1895,0.1015 0.26574,0.1611 0.0762,0.06 0.20675,0.1426 0.29002,0.1845 0.0833,0.042 0.18548,0.1136 0.22712,0.1594 0.0416,0.046 0.14384,0.1175 0.22712,0.1595 0.0833,0.042 0.2074,0.1247 0.27583,0.184 0.0684,0.059 0.20835,0.1501 0.31093,0.201704 0.10258,0.052 0.20419,0.1267 0.22581,0.1668 0.0216,0.04 0.12344,0.1185 0.22628,0.1741 0.10283,0.056 0.1955,0.1231 0.20593,0.1501 0.0104,0.027 0.10936,0.1095 0.21986,0.1833 0.19041,0.1272 0.43861,0.3137 0.62673,0.4708 0.0643,0.054 0.0852,0.1112 0.0852,0.2348 0,0.2118 -0.0655,0.2993 -0.31085,0.4151 -0.11009,0.052 -0.23131,0.129 -0.26939,0.1711 -0.0381,0.042 -0.16583,0.1143 -0.28389,0.1603 -0.11808,0.046 -0.27429,0.1292 -0.34716,0.1849 -0.0729,0.056 -0.24232,0.1379 -0.37657,0.1827 -0.13425,0.045 -0.30877,0.1261 -0.38782,0.1805 -0.079,0.054 -0.2496,0.1232 -0.37899,0.1529 -0.12939,0.03 -0.32962,0.1108 -0.44495,0.1802 -0.11533,0.069 -0.30603,0.1452 -0.42379,0.1685 -0.11776,0.023 -0.29259,0.094 -0.3885,0.1571 -0.0959,0.063 -0.29013,0.1443 -0.43156,0.1805 -0.22454,0.057 -0.38889,0.1439 -0.75439,0.3973 -0.0468,0.033 -0.0852,0.083 -0.0852,0.1126 0,0.092 0.15905,0.3686 0.31369,0.5446 0.35929,0.4087 0.9269,0.9399 1.00436,0.9399 0.02,0 0.11382,0.063 0.20842,0.141 0.0946,0.078 0.25564,0.1704 0.35786,0.2063 0.10221,0.036 0.24772,0.1141 0.32334,0.1738 0.081,0.064 0.24287,0.1346 0.39387,0.17199 0.141,0.035 0.34643,0.1137 0.45653,0.1751 0.11008,0.061 0.33152,0.1382 0.49208,0.1707 0.16056,0.033 0.40796,0.1092 0.54977,0.1704 0.1534,0.066 0.4357,0.1411 0.69688,0.1848 0.24147,0.04 0.53425,0.115 0.65063,0.1658 0.11637,0.051 0.42379,0.1271 0.68314,0.1695 0.27043,0.044 0.55802,0.1163 0.67426,0.1691 0.11149,0.051 0.34135,0.1183 0.51081,0.1503 0.38327,0.072 0.4678,0.1247 0.49939,0.3104 0.0248,0.1455 -0.0199,0.4178 -0.0955,0.5826 -0.0741,0.1616 -0.51456,0.5184 -0.73468,0.5953 -0.11292,0.039 -0.31663,0.1324 -0.45269,0.2067 -0.19622,0.1071 -0.27145,0.1298 -0.36379,0.1097 -0.10473,-0.023 -0.13713,-0.01 -0.32236,0.1791 -0.25804,0.2563 -0.2674,0.3494 -0.056,0.5573 0.0825,0.081 0.16744,0.1475 0.18883,0.1475 0.046,0 0.15149,0.081 0.35225,0.269 0.0805,0.076 0.2007,0.1588 0.26709,0.1849 0.0664,0.026 0.20215,0.1058 0.3017,0.1769 0.16303,0.1164 0.1912,0.1248 0.28389,0.085 0.12242,-0.053 0.37615,-0.3591 0.60442,-0.7288 0.0365,-0.059 0.14719,-0.2179 0.24608,-0.3529 0.0989,-0.1351 0.17981,-0.2657 0.17981,-0.2903 0,-0.025 0.0442,-0.086 0.0983,-0.1358 0.0541,-0.05 0.13316,-0.1589 0.17574,-0.2416 0.0426,-0.083 0.13462,-0.2169 0.20451,-0.2981 0.0699,-0.081 0.12708,-0.1701 0.12708,-0.1973 0,-0.027 0.0574,-0.113 0.12748,-0.1906 0.0701,-0.078 0.16256,-0.2099 0.20543,-0.294 0.0429,-0.084 0.10606,-0.1761 0.14044,-0.2045 0.0344,-0.028 0.10242,-0.1298 0.15122,-0.2254 0.0488,-0.096 0.117,-0.1972 0.15155,-0.2257 0.0345,-0.028 0.11114,-0.1469 0.1702,-0.2631 0.0591,-0.1162 0.13565,-0.2346 0.1702,-0.2631 0.0345,-0.028 0.10275,-0.13 0.15155,-0.2257 0.0488,-0.096 0.11694,-0.1971 0.15141,-0.2255 0.0345,-0.028 0.10578,-0.1374 0.15844,-0.2421 0.0527,-0.1047 0.13559,-0.23259 0.1843,-0.28429 0.0487,-0.052 0.1136,-0.1536 0.14422,-0.2264 0.0306,-0.073 0.0929,-0.1658 0.13836,-0.2067 0.0455,-0.041 0.131,-0.1801 0.19002,-0.3094 0.059,-0.1293 0.12517,-0.2351 0.147,-0.2351 0.0218,0 0.0896,-0.098 0.15069,-0.2184 0.0611,-0.1202 0.14029,-0.2426 0.17606,-0.2721 0.0358,-0.029 0.0979,-0.13 0.138,-0.2233 0.0401,-0.093 0.11337,-0.212 0.16274,-0.2637 0.0494,-0.052 0.12255,-0.1703 0.16262,-0.2635 0.0401,-0.093 0.11588,-0.2202 0.16845,-0.2823 0.0526,-0.062 0.12399,-0.1804 0.1587,-0.2629 0.0347,-0.082 0.10342,-0.1924 0.15269,-0.2441 0.0493,-0.052 0.1326,-0.1913 0.18517,-0.3102 0.0526,-0.1189 0.11234,-0.2161 0.1328,-0.2161 0.0205,0 0.0888,-0.1086 0.15193,-0.2413 0.0631,-0.1326 0.13336,-0.2526 0.15612,-0.2666 0.0228,-0.014 0.0917,-0.1286 0.15328,-0.2548 0.0615,-0.1263 0.14469,-0.2643 0.18476,-0.3068 0.0401,-0.043 0.10914,-0.1619 0.15352,-0.2653 0.0444,-0.1034 0.12013,-0.2303 0.16833,-0.282 0.0482,-0.052 0.10671,-0.1532 0.13004,-0.2256 0.0233,-0.072 0.11055,-0.2311 0.19383,-0.3528 0.0833,-0.1217 0.15142,-0.2411 0.15142,-0.2653 0,-0.024 0.0444,-0.1023 0.0986,-0.173504 0.0542,-0.071 0.1463,-0.2333 0.20462,-0.3601 0.0583,-0.1268 0.1259,-0.2428 0.1502,-0.2577 0.0243,-0.015 0.0998,-0.148 0.16766,-0.2958 0.0679,-0.1477 0.15091,-0.2911 0.18444,-0.3185 0.0335,-0.027 0.0885,-0.1323 0.12214,-0.2329 0.0337,-0.1006 0.0985,-0.2292 0.14403,-0.2856 0.0823,-0.102 0.23398,-0.3804 0.49726,-0.9128 0.0756,-0.1528 0.16988,-0.3189 0.2095,-0.3689 0.0396,-0.05 0.0925,-0.1533 0.11752,-0.2296 0.025,-0.076 0.0933,-0.2081 0.15167,-0.2931 0.0584,-0.085 0.13828,-0.2372 0.17749,-0.3384 0.0392,-0.1011 0.12524,-0.2676 0.19116,-0.3699 0.0659,-0.1022 0.11987,-0.2131 0.11987,-0.2464 0,-0.033 0.0538,-0.1441 0.11947,-0.2464 0.0657,-0.1023 0.15671,-0.279 0.20222,-0.3928 0.0455,-0.1137 0.12777,-0.2722 0.18281,-0.3522 0.055,-0.08 0.11627,-0.2037 0.13609,-0.275 0.0198,-0.071 0.0881,-0.2103 0.15187,-0.3089 0.0637,-0.099 0.14001,-0.2591 0.16953,-0.3565 0.0295,-0.097 0.0951,-0.2313 0.14564,-0.2976 0.0506,-0.066 0.1294,-0.2327 0.17515,-0.3699 0.0458,-0.1372 0.11649,-0.2794 0.15722,-0.316 0.0407,-0.037 0.10698,-0.1756 0.14723,-0.3088 0.0403,-0.1333 0.11799,-0.3066 0.17274,-0.385 0.0548,-0.078 0.12298,-0.2309 0.15161,-0.3387 0.0286,-0.1078 0.0956,-0.2583 0.14875,-0.3346 0.0532,-0.076 0.12389,-0.2309 0.15712,-0.3438 0.0332,-0.1128 0.10821,-0.2813 0.16663,-0.3743 0.0584,-0.093 0.13305,-0.2623 0.16583,-0.376 0.0328,-0.1138 0.10159,-0.2677 0.1529,-0.3421 0.0513,-0.074 0.12139,-0.2436 0.15576,-0.376 0.0344,-0.1324 0.10304,-0.2938 0.15262,-0.3587 0.0496,-0.065 0.1231,-0.2361 0.16339,-0.3805 0.0403,-0.1444 0.11639,-0.3282 0.16912,-0.4084 0.0527,-0.08 0.12397,-0.2558 0.15833,-0.3902 0.0344,-0.1344 0.11079,-0.3172 0.16987,-0.4061 0.0591,-0.089 0.11918,-0.2328 0.13357,-0.3196 0.0144,-0.087 0.0488,-0.2126 0.0765,-0.2795 0.058,-0.14 0.3001,-0.4657 0.37893,-0.5097 0.0971,-0.054 0.20146,0.044 0.26184,0.2466 0.0323,0.1082 0.10706,0.2644 0.16623,0.3471 0.0592,0.083 0.12797,0.2127 0.15289,0.2889 0.0249,0.076 0.0945,0.1998 0.15453,0.2749 0.0601,0.075 0.13649,0.2181 0.16982,0.3177 0.0333,0.1 0.0957,0.2128 0.13861,0.2514 0.0429,0.039 0.1245,0.1717 0.18132,0.2958 0.0568,0.1241 0.13192,0.249 0.1669,0.2776 0.035,0.029 0.0983,0.1299 0.14073,0.2251 0.0424,0.095 0.10948,0.2074 0.14904,0.2492 0.0396,0.042 0.1154,0.1737 0.16854,0.2931 0.0531,0.1194 0.12077,0.2262 0.15028,0.2375 0.0295,0.011 0.0992,0.116 0.15487,0.2328 0.0557,0.1168 0.15075,0.2683 0.21127,0.3368 0.0605,0.068 0.11003,0.1492 0.11003,0.1795 0,0.03 0.0574,0.1184 0.12749,0.196 0.0701,0.078 0.16609,0.2173 0.21328,0.3103 0.0472,0.093 0.13461,0.2248 0.19427,0.2927 0.0597,0.068 0.10846,0.1483 0.10846,0.1785 0,0.03 0.0573,0.1185 0.12733,0.1961 0.07,0.078 0.1577,0.2003 0.19483,0.2727 0.0371,0.072 0.12461,0.1981 0.19442,0.2793 0.0698,0.081 0.12692,0.1701 0.12692,0.1973 0,0.027 0.0574,0.113 0.12749,0.1907 0.0701,0.078 0.16255,0.2099 0.20542,0.294 0.0429,0.084 0.10606,0.1761 0.14044,0.2044 0.0344,0.028 0.10445,0.1337 0.15572,0.2342 0.0513,0.1005 0.11886,0.1925 0.15021,0.2045 0.0313,0.012 0.0988,0.1036 0.1498,0.2036 0.051,0.1001 0.14144,0.2375 0.20089,0.3055 0.0594,0.068 0.13007,0.1659 0.15695,0.2176 0.0269,0.052 0.0987,0.1532 0.15958,0.2256 0.14636,0.1739 0.3427,0.4648 0.46441,0.6879 0.0541,0.099 0.12396,0.1901 0.15523,0.202 0.0313,0.012 0.0925,0.092 0.13604,0.1768 0.0436,0.085 0.12789,0.2107 0.18742,0.2784 0.0595,0.068 0.14116,0.1874 0.1814,0.2657 0.0402,0.078 0.10122,0.1656 0.13549,0.1939 0.0343,0.028 0.0934,0.1117 0.13136,0.1855 0.038,0.074 0.11373,0.1818 0.16834,0.2402 0.0546,0.058 0.14021,0.1864 0.19021,0.2844 0.05,0.098 0.11911,0.2014 0.15359,0.2298 0.0345,0.028 0.10261,0.13 0.15141,0.2256 0.0488,0.096 0.11694,0.1972 0.15141,0.2256 0.0345,0.028 0.10577,0.1373 0.15844,0.242 0.0527,0.1047 0.13559,0.2327 0.1843,0.2844 0.0487,0.052 0.1136,0.1535 0.14422,0.2263 0.0306,0.073 0.0929,0.1658 0.13836,0.2067 0.0455,0.041 0.131,0.1802 0.19002,0.3095 0.059,0.1292 0.12637,0.235 0.14967,0.235 0.0233,0 0.0781,0.08 0.12169,0.1786 0.0436,0.098 0.13521,0.2515 0.20352,0.3405 0.0683,0.089 0.13476,0.2097 0.14768,0.2682 0.0129,0.058 0.0737,0.1507 0.13503,0.205004 0.14046,0.1243 0.14935,0.2895 0.0224,0.4157 -0.1336,0.1327 -0.54538,0.1614 -1.11466,0.078 -0.96974,-0.1426 -1.35189,-0.1629 -1.46703,-0.078 -0.072,0.053 -0.0715,0.058 0.0281,0.236 0.0559,0.1 0.13059,0.2966 0.16607,0.4369 0.0355,0.1403 0.10713,0.3175 0.15923,0.3937 0.0521,0.076 0.12667,0.2309 0.16574,0.3437 0.0391,0.1127 0.10339,0.2396 0.14296,0.2819 0.0396,0.042 0.1132,0.1701 0.16362,0.2838 0.0504,0.1138 0.12122,0.2311 0.15734,0.2607 0.0361,0.03 0.10074,0.1227 0.1436,0.2068 0.0429,0.084 0.135,0.2206 0.20472,0.3033 0.0697,0.083 0.19949,0.2396 0.28836,0.3486 0.36236,0.4445 0.90958,1.0214 1.22077,1.2869 0.18178,0.1551 0.3919,0.3379 0.46693,0.4063 0.16887,0.1538 0.27577,0.1397 0.4522,-0.06 0.0679,-0.077 0.18039,-0.1989 0.2499,-0.2713 0.0695,-0.072 0.15359,-0.1841 0.18683,-0.2482 0.0333,-0.064 0.10369,-0.1447 0.15653,-0.1791 0.0528,-0.034 0.12856,-0.1258 0.16825,-0.203 0.0397,-0.077 0.10985,-0.1743 0.15592,-0.2156 0.0461,-0.041 0.11823,-0.1429 0.16035,-0.2256 0.0421,-0.083 0.14252,-0.222 0.22309,-0.3094 0.16116,-0.1748 0.178,-0.2383 0.0838,-0.3158 -0.0494,-0.041 -0.26735,-0.052 -1.03149,-0.053 -1.06901,-0.001 -0.913,0.024 -1.70512,-0.2767 -0.28887,-0.1097 -0.32231,-0.1529 -0.32231,-0.4157 0,-0.1967 0.0142,-0.2387 0.12397,-0.3659 0.0682,-0.079 0.17011,-0.2175 0.22649,-0.3077 0.0564,-0.09 0.15562,-0.2256 0.22053,-0.3008 0.0649,-0.075 0.15422,-0.2078 0.19846,-0.2945 0.0442,-0.087 0.10302,-0.1714 0.13062,-0.188 0.0276,-0.017 0.10383,-0.1244 0.1694,-0.2395 0.0656,-0.1151 0.15568,-0.242 0.20023,-0.282 0.0446,-0.04 0.1199,-0.1489 0.16745,-0.2419 0.0476,-0.093 0.12417,-0.203 0.17027,-0.244404 0.0461,-0.041 0.11852,-0.1429 0.16091,-0.2256 0.0424,-0.083 0.13428,-0.2169 0.20417,-0.2981 0.0699,-0.081 0.12707,-0.1701 0.12707,-0.1973 0,-0.027 0.0574,-0.113 0.12749,-0.1906 0.0701,-0.078 0.1639,-0.2126 0.20842,-0.2999 0.0445,-0.087 0.12958,-0.2142 0.18902,-0.282 0.0594,-0.068 0.13831,-0.1824 0.17526,-0.2548 0.0369,-0.072 0.12449,-0.1951 0.19452,-0.2727 0.07,-0.078 0.1274,-0.1622 0.12749,-0.188 0,-0.026 0.0677,-0.1354 0.15025,-0.2435 0.0825,-0.1082 0.18287,-0.2604 0.22293,-0.3384 0.0401,-0.078 0.10933,-0.1745 0.15394,-0.2146 0.0446,-0.04 0.11198,-0.1416 0.14971,-0.2256 0.0377,-0.084 0.13079,-0.2262 0.20681,-0.3161 0.076,-0.09 0.13822,-0.1871 0.13822,-0.2161 0,-0.029 0.0574,-0.1162 0.12758,-0.1938 0.0702,-0.078 0.17105,-0.2268 0.22417,-0.3314 0.0531,-0.1047 0.12479,-0.2137 0.15927,-0.2421 0.0345,-0.028 0.10577,-0.1373 0.15843,-0.242 0.0527,-0.1047 0.13559,-0.2326 0.18428,-0.2843 0.0487,-0.052 0.12588,-0.1786 0.17151,-0.282 0.0456,-0.1034 0.14024,-0.2515 0.21022,-0.3291 0.07,-0.078 0.12725,-0.1646 0.12725,-0.1933 0,-0.029 0.0646,-0.1298 0.14353,-0.2247 0.0789,-0.095 0.16607,-0.2363 0.19362,-0.3143 0.0276,-0.078 0.0984,-0.1925 0.15735,-0.2546 0.059,-0.062 0.14167,-0.1901 0.18372,-0.2847 0.0421,-0.095 0.1258,-0.2336 0.18611,-0.309 0.0603,-0.075 0.13206,-0.1926 0.15941,-0.2604 0.0274,-0.068 0.1053,-0.1858 0.17321,-0.2621 0.0679,-0.076 0.14423,-0.2075 0.16961,-0.2916 0.0254,-0.084 0.10051,-0.2164 0.16694,-0.2938 0.0664,-0.077 0.15703,-0.2224 0.20135,-0.3223 0.0443,-0.1 0.12304,-0.2318 0.17494,-0.2931 0.0519,-0.061 0.12973,-0.1908 0.17294,-0.2878 0.0432,-0.097 0.11095,-0.2107 0.15051,-0.2525 0.0396,-0.042 0.11357,-0.169 0.16448,-0.2825 0.0509,-0.1135 0.13695,-0.2572 0.19121,-0.3192 0.0543,-0.062 0.12435,-0.1889 0.15575,-0.282 0.0314,-0.093 0.11657,-0.2435 0.18926,-0.3343 0.0727,-0.091 0.13215,-0.1863 0.13215,-0.2124 0,-0.026 0.0618,-0.1378 0.1374,-0.2485 0.0756,-0.1106 0.18367,-0.3026 0.24022,-0.4267 0.0566,-0.1241 0.12928,-0.2474 0.16163,-0.2741 0.0323,-0.027 0.0972,-0.1451 0.14419,-0.2632 0.047,-0.1181 0.12525,-0.2578 0.17398,-0.3106 0.0487,-0.053 0.13122,-0.2039 0.18329,-0.3358 0.0521,-0.132 0.1271,-0.275 0.16674,-0.3177 0.0396,-0.043 0.12556,-0.1958 0.19094,-0.3402 0.0654,-0.1443 0.15099,-0.2966 0.19026,-0.3383 0.0393,-0.042 0.1074,-0.1719 0.15139,-0.2891 0.044,-0.1172 0.11392,-0.2559 0.15538,-0.3082 0.0415,-0.052 0.11876,-0.1926 0.17176,-0.3117 0.053,-0.119 0.1305,-0.264 0.17221,-0.3222 0.0417,-0.058 0.11534,-0.2059 0.16363,-0.3282998 0.0483,-0.1224 0.1303,-0.2785 0.18227,-0.347 0.052,-0.068 0.12258,-0.2092 0.15691,-0.3126 0.0343,-0.1034 0.11353,-0.2595 0.17598,-0.3469 0.0624,-0.087 0.14588,-0.2523 0.18538,-0.3664 0.0395,-0.114 0.11538,-0.264 0.16861,-0.3334 0.0532,-0.069 0.13083,-0.2243 0.17245,-0.3444 0.0416,-0.1202 0.11564,-0.2708 0.1645,-0.3348 0.0489,-0.064 0.11869,-0.2095 0.15516,-0.3232 0.0365,-0.1137 0.11768,-0.2799 0.18045,-0.3693 0.0628,-0.089 0.14423,-0.2612 0.18104,-0.382 0.0368,-0.1208 0.1111,-0.2771 0.16507,-0.3474 0.054,-0.07 0.13206,-0.2369 0.17353,-0.3702 0.0415,-0.1334 0.11901,-0.3012 0.17231,-0.373 0.0533,-0.072 0.13009,-0.2411 0.17065,-0.3764 0.0406,-0.1352 0.1172,-0.3044 0.17033,-0.376 0.0531,-0.072 0.13025,-0.2403 0.17136,-0.3752 0.0411,-0.1348 0.12486,-0.3181 0.18611,-0.4074 0.0612,-0.089 0.13002,-0.2515 0.15283,-0.3607 0.0228,-0.1091 0.0998,-0.2883 0.17106,-0.3982 0.0713,-0.1099 0.14814,-0.2886 0.17083,-0.3971 0.0227,-0.1086 0.0932,-0.2754 0.15677,-0.3706 0.0635,-0.095 0.14524,-0.2872 0.18156,-0.4265 0.0363,-0.1393 0.11944,-0.3365 0.18471,-0.4383 0.0653,-0.1017 0.13814,-0.2832 0.16194,-0.4034 0.0238,-0.12009998 0.0972,-0.30159998 0.16312,-0.40319998 0.066,-0.1017 0.14977,-0.3091 0.18644,-0.4613 0.0513,-0.2131 0.10981,-0.335 0.25459,-0.5304 0.26008,-0.3511 0.37241,-0.3342 0.50696,0.076 0.0358,0.1092 0.105,0.2457 0.15379,0.3033 0.0488,0.058 0.12151,0.1904 0.16161,0.2952 0.0401,0.1048 0.12382,0.256 0.18607,0.3359 0.0623,0.08 0.14294,0.2264 0.17933,0.3254 0.0364,0.099 0.10675,0.22799998 0.15635,0.28659998 0.0496,0.059 0.12568,0.189 0.16907,0.2899 0.0434,0.1009 0.11928,0.2257 0.16865,0.2774 0.0494,0.052 0.12256,0.1703 0.16263,0.2635 0.0401,0.093 0.1166,0.2211 0.17005,0.2842 0.0535,0.063 0.13854,0.2068 0.18908,0.3193 0.0505,0.1125 0.13062,0.2384 0.17796,0.2798 0.0473,0.041 0.11756,0.1476 0.15604,0.2361 0.0385,0.089 0.12066,0.2239 0.18265,0.3008 0.062,0.077 0.13761,0.1994 0.16805,0.2722 0.0304,0.073 0.0927,0.1658 0.13829,0.2068 0.0456,0.041 0.12232,0.1516 0.17047,0.2459 0.0481,0.094 0.14852,0.2439 0.22303,0.3325 0.0745,0.089 0.13548,0.1833 0.13548,0.2104 0,0.027 0.061,0.1217 0.13547,0.2103 0.0745,0.089 0.17488,0.2382 0.22303,0.3326 0.0482,0.094 0.12527,0.2053 0.17137,0.2466 0.0461,0.041 0.11796,0.1429 0.15967,0.2256 0.0417,0.083 0.11377,0.1927 0.16012,0.2444 0.0463,0.052 0.13228,0.1786 0.19097,0.282 0.0587,0.1034 0.16367,0.2515 0.23331,0.3291 0.0696,0.078 0.12662,0.1632 0.12662,0.1903 0,0.027 0.0527,0.099 0.11702,0.1597 0.0644,0.061 0.15159,0.1781 0.19383,0.2608 0.0422,0.083 0.13175,0.2181 0.1989,0.3008 0.0671,0.083 0.15249,0.2145 0.18964,0.2927 0.0371,0.078 0.0993,0.1592 0.13818,0.1799 0.0389,0.021 0.10706,0.1089 0.15157,0.1961 0.0445,0.087 0.12963,0.2139 0.18916,0.2817 0.0595,0.068 0.14485,0.1947 0.18962,0.282 0.0448,0.087 0.11331,0.1811 0.15234,0.2084 0.039,0.027 0.11138,0.1288 0.1608,0.2256 0.0494,0.097 0.12761,0.2098 0.17378,0.2511 0.0462,0.041 0.13342,0.1725 0.1939,0.2914 0.0605,0.1189 0.12603,0.2161998 0.14567,0.2161998 0.0196,0 0.0818,0.08 0.13806,0.1786 0.0563,0.098 0.1489,0.2293 0.2058,0.2914 0.0569,0.062 0.14651,0.1984 0.19913,0.3031 0.0526,0.1047 0.12387,0.2136 0.15835,0.2421 0.0345,0.028 0.1021,0.1288 0.15027,0.2232 0.0482,0.094 0.12536,0.2054 0.17153,0.2467 0.0462,0.041 0.13178,0.1693 0.19026,0.2843 0.0585,0.1149 0.13603,0.2334 0.17232,0.2632 0.0363,0.03 0.10383,0.1387 0.15008,0.2421 0.0463,0.1034 0.12248,0.2218 0.1694,0.2632 0.0469,0.041 0.13174,0.1767 0.1885,0.3008 0.0568,0.124 0.14022,0.2583 0.18547,0.2984 0.0452,0.04 0.11653,0.1498 0.15843,0.2439 0.0419,0.094 0.10855,0.2053 0.14811,0.2471 0.0396,0.042 0.11354,0.169 0.16441,0.2825 0.0509,0.1135 0.1369,0.2474 0.19119,0.2975 0.16494,0.1523 0.12386,0.3784 -0.0892,0.4912 -0.1381,0.073 -0.89331,0.066 -1.30723,-0.012 -0.38439,-0.073 -1.16754,-0.1237 -1.31929,-0.086 -0.12505,0.031 -0.13422,0.1584 -0.0217,0.3005 0.0432,0.054 0.11696,0.2422 0.16393,0.4169 0.047,0.1747 0.13042,0.3822 0.18543,0.461 0.055,0.079 0.13353,0.2402 0.17451,0.3585 0.041,0.1183 0.1245,0.2788 0.18561,0.3566 0.0611,0.078 0.12898,0.1954 0.15081,0.2613 0.0218,0.066 0.10912,0.207 0.19395,0.3136 0.0848,0.1065 0.15424,0.219 0.15424,0.2497 0,0.031 0.0681,0.123 0.15141,0.2049 0.0833,0.082 0.15141,0.165 0.15141,0.1846 0,0.02 0.0809,0.1278 0.1798,0.2403 0.0989,0.1125 0.31607,0.3604 0.48263,0.5509 0.29517,0.3377 0.87238,0.8778 1.34318,1.2569 0.12841,0.1034 0.3082,0.2599 0.39952,0.3478 0.0913,0.088 0.18367,0.1598 0.2052,0.1598 0.0215,0 0.10309,0.057 0.18122,0.1264 0.0781,0.07 0.19387,0.1528 0.25721,0.1849 0.0633,0.032 0.19929,0.1276 0.30213,0.212 0.10283,0.084 0.20618,0.1534 0.22966,0.1534 0.0235,0 0.11747,0.064 0.20888,0.1416 0.0914,0.078 0.22582,0.1686 0.29869,0.2018 0.0729,0.033 0.20649,0.1217 0.29694,0.1968 0.0904,0.075 0.18835,0.1366 0.21755,0.1366 0.0292,0 0.11701,0.057 0.19514,0.1267 0.0781,0.07 0.23575,0.1735 0.35025,0.2306 0.11451,0.057 0.26415,0.1523 0.33253,0.2116 0.0684,0.059 0.14871,0.1079 0.17849,0.1079 0.0298,0 0.1101,0.049 0.17848,0.1082 0.0684,0.059 0.22655,0.1631 0.35146,0.2301 0.12492,0.067 0.28307,0.1706 0.35146,0.2301 0.0684,0.06 0.14349,0.1083 0.16689,0.1083 0.0234,0 0.12987,0.065 0.23658,0.1455 0.10671,0.08 0.26157,0.1799 0.34412,0.222 0.0826,0.042 0.1882,0.117 0.23478,0.1665 0.12424,0.1323 0.32642,0.1036 0.39287,-0.056 0.0266,-0.064 0.10346,-0.1875 0.17087,-0.2753 0.0674,-0.088 0.14933,-0.2109 0.18203,-0.2736 0.0327,-0.063 0.10194,-0.1564 0.1539,-0.208 0.052,-0.052 0.0945,-0.1187 0.0945,-0.1491 0,-0.03 0.0588,-0.1317 0.13066,-0.2253 0.0719,-0.093 0.16591,-0.2386 0.20897,-0.3224 0.0431,-0.084 0.0924,-0.1524 0.10962,-0.1524 0.0172,0 0.0635,-0.071 0.10285,-0.1576 0.0393,-0.087 0.12708,-0.2235 0.19501,-0.3043 0.0679,-0.081 0.1235,-0.1683 0.1235,-0.1945 0,-0.026 0.0526,-0.1134 0.11698,-0.1938 0.0643,-0.08 0.1419,-0.2054 0.17235,-0.2778 0.0304,-0.072 0.0955,-0.1739 0.14447,-0.2256 0.049,-0.052 0.11705,-0.1614 0.15121,-0.2439 0.0342,-0.082 0.0935,-0.1839 0.13183,-0.2255 0.0383,-0.042 0.11448,-0.1646 0.16917,-0.2731 0.0547,-0.1086 0.11421,-0.1974 0.13226,-0.1974 0.0181,0 0.0703,-0.092 0.11611,-0.2039 0.0458,-0.1121 0.11654,-0.2337 0.15718,-0.2702 0.0406,-0.037 0.10818,-0.1434 0.15008,-0.2375 0.0419,-0.094 0.10827,-0.2051 0.14749,-0.2467 0.0392,-0.042 0.10431,-0.1518 0.14466,-0.2449 0.0403,-0.093 0.10865,-0.2005 0.15181,-0.2389 0.0432,-0.038 0.0894,-0.1193 0.10287,-0.18 0.0134,-0.061 0.0803,-0.1831 0.14857,-0.2719 0.0683,-0.089 0.14433,-0.2222 0.16895,-0.2964 0.0246,-0.074 0.0722,-0.1572 0.10577,-0.1847 0.0336,-0.028 0.095,-0.1261 0.13647,-0.2192 0.0415,-0.093 0.13243,-0.2515 0.20204,-0.352 0.0696,-0.1005 0.12656,-0.2038 0.12656,-0.2294 0,-0.026 0.0525,-0.1184 0.11661,-0.2064 0.0641,-0.088 0.14057,-0.2273 0.16987,-0.3098 0.0293,-0.082 0.0946,-0.1988 0.14512,-0.2584 0.0505,-0.06 0.11243,-0.1723 0.1376,-0.2504 0.0252,-0.078 0.0761,-0.1758 0.11308,-0.2171 0.037,-0.041 0.12077,-0.1852 0.18612,-0.3196 0.0653,-0.1344 0.19391,-0.3797 0.28568,-0.5452 0.0918,-0.1654 0.20878,-0.3882 0.26003,-0.4951 0.0512,-0.1069 0.13729,-0.2589 0.19122,-0.3377 0.0539,-0.079 0.0981,-0.17 0.0981,-0.2025 0,-0.033 0.0533,-0.1425 0.11839,-0.2445 0.0651,-0.102 0.14042,-0.2475 0.16735,-0.3233 0.0269,-0.076 0.0922,-0.2029 0.14511,-0.2825 0.0529,-0.08 0.12019,-0.2126 0.14957,-0.2956 0.0294,-0.083 0.10669,-0.2343 0.17181,-0.3363 0.0651,-0.102 0.11839,-0.2131 0.11839,-0.2468 0,-0.034 0.0513,-0.1383 0.1139,-0.2322 0.0626,-0.094 0.13787,-0.2499 0.16715,-0.3466 0.0293,-0.097 0.0958,-0.2311 0.14776,-0.2988 0.052,-0.068 0.11306,-0.1915 0.13574,-0.2751 0.0227,-0.084 0.0858,-0.2173 0.1403,-0.2971 0.0545,-0.08 0.12451,-0.2300998 0.15558,-0.3340998 0.0311,-0.104 0.0893,-0.235 0.12951,-0.2911 0.0402,-0.056 0.10668,-0.1999 0.14784,-0.3196 0.0412,-0.1197 0.10715,-0.2615 0.14666,-0.3152 0.0395,-0.054 0.099,-0.1884 0.13223,-0.2995 0.0332,-0.1111 0.10151,-0.2637 0.15179,-0.3392 0.0503,-0.076 0.11124,-0.2113 0.13549,-0.302 0.0242,-0.091 0.0921,-0.2494 0.15084,-0.3528 0.0587,-0.1034 0.1266,-0.2642 0.15084,-0.3572 0.0242,-0.093 0.0848,-0.2315 0.13467,-0.3076 0.0498,-0.076 0.11048,-0.2199 0.13476,-0.3196 0.0546,-0.2241 0.18282,-0.4632 0.24841,-0.4632 0.027,0 0.0593,-0.047 0.0719,-0.1034 0.0429,-0.1947 0.0895,-0.3135 0.16344,-0.4167 0.0407,-0.057 0.10157,-0.2089 0.13529,-0.3382 0.0569,-0.2182 0.26975,-0.6082 0.36323,-0.6656 0.0618,-0.038 0.18002,0.088 0.20726,0.2213 0.0133,0.065 0.0713,0.186 0.12872,0.2687 0.0575,0.083 0.12328,0.2053 0.14625,0.2725 0.023,0.067 0.0852,0.1786 0.13829,0.2478 0.0531,0.069 0.11787,0.1863 0.14395,0.2605 0.0261,0.074 0.11079,0.208 0.18823,0.2974 0.18864,0.2178 0.31784,0.3983 0.39891,0.5573 0.0369,0.072 0.12218,0.2061 0.18953,0.297 0.0673,0.091 0.12245,0.1877 0.12245,0.2149 0,0.027 0.0512,0.1073 0.11368,0.1781 0.0625,0.071 0.14092,0.1933 0.1742,0.2724 0.0333,0.079 0.10988,0.2034 0.17022,0.2761 0.0603,0.073 0.10969,0.1531 0.10969,0.1787 0,0.026 0.0487,0.1021 0.10831,0.17 0.0596,0.068 0.13817,0.1827 0.17466,0.2551 0.0365,0.072 0.10609,0.1739 0.15465,0.2256 0.0486,0.052 0.11378,0.1546 0.14491,0.2286 0.0311,0.074 0.0844,0.1575 0.11833,0.1855 0.034,0.028 0.0933,0.1124 0.13196,0.1876 0.0386,0.075 0.13106,0.209 0.20542,0.2974 0.0744,0.088 0.1352,0.1819 0.1352,0.2078 0,0.026 0.0359,0.079 0.0797,0.1186 0.0439,0.039 0.11077,0.1319998 0.1487,0.2058998 0.0379,0.074 0.1298,0.2065 0.20416,0.2949 0.0744,0.088 0.1352,0.1816 0.1352,0.207 0,0.025 0.0427,0.086 0.0949,0.1348 0.0522,0.049 0.14639,0.1743 0.20935,0.2792 0.11973,0.1993 0.23127,0.3643 0.39592,0.5854 0.27881,0.3744 0.47331,0.6523 0.47331,0.6763 0,0.015 0.0468,0.077 0.10409,0.139 0.0573,0.062 0.13393,0.1614 0.17038,0.2217 0.0365,0.06 0.1046,0.1628 0.15142,0.2278 0.0468,0.065 0.11495,0.1664 0.15141,0.2255 0.0865,0.1404 0.22924,0.3431 0.3385,0.4808 0.048,0.061 0.12989,0.1809 0.18194,0.2676 0.15837,0.2637 0.32912,0.5187 0.42684,0.6375 0.051,0.062 0.12893,0.1836 0.17311,0.2701 0.0442,0.086 0.0979,0.168 0.11943,0.1812 0.0215,0.013 0.0801,0.1042 0.13007,0.2023 0.05,0.098 0.12017,0.2024 0.15587,0.2318 0.0357,0.029 0.0971,0.1282 0.13655,0.2195 0.0394,0.091 0.12224,0.2233 0.18409,0.2933 0.0618,0.07 0.11249,0.1477 0.11254,0.1728 0,0.025 0.0682,0.1453 0.15141,0.267 0.0832,0.1217 0.15132,0.2379 0.15132,0.2582 0,0.02 0.0511,0.095 0.11356,0.1655 0.13029,0.1473 0.13372,0.166 0.0574,0.3125 -0.0372,0.071 -0.0978,0.117 -0.1798,0.1351 -0.19922,0.044 -0.7013,0.028 -1.08893,-0.034 -1.01134,-0.1622 -1.28228,-0.1126 -1.06515,0.195 0.0387,0.055 0.0914,0.1929 0.11708,0.3066 0.0257,0.1137 0.094,0.2849 0.15194,0.3803 0.0579,0.095 0.13391,0.2591 0.16889,0.3637 0.035,0.1046 0.0905,0.2124 0.12347,0.2395 0.0329,0.027 0.0917,0.1231 0.13059,0.2133 0.0389,0.09 0.12174,0.2253 0.18409,0.3004 0.0624,0.075 0.11338,0.1571 0.11338,0.1822 0,0.043 0.14901,0.2375 0.4125,0.5389 0.0633,0.072 0.18712,0.2162 0.27521,0.3196 0.30112,0.3534 0.54261,0.5914 0.99675,0.9824 0.24983,0.2151 0.50767,0.4402 0.57299,0.5002 0.0653,0.06 0.17092,0.1358 0.2347,0.1685 0.0638,0.033 0.12957,0.083 0.14621,0.1121 0.0166,0.029 0.0984,0.091 0.18169,0.1387 0.0833,0.047 0.20425,0.1296 0.26884,0.1825 0.0646,0.053 0.16679,0.1259 0.22712,0.1621 0.0603,0.036 0.16317,0.1039 0.22853,0.1504 0.0654,0.046 0.16757,0.1144 0.22712,0.1509 0.0596,0.036 0.21047,0.1342 0.33539,0.2171 0.12491,0.083 0.27552,0.18 0.33468,0.2157 0.0592,0.036 0.18609,0.1156 0.28206,0.1776 0.096,0.062 0.24297,0.1515 0.32667,0.1987 0.0837,0.047 0.18674,0.1172 0.22897,0.1555 0.0422,0.038 0.14604,0.1042 0.23071,0.1464 0.0847,0.042 0.177,0.1043 0.20518,0.138 0.0282,0.034 0.1051,0.084 0.17095,0.111 0.0658,0.027 0.20052,0.111 0.29928,0.1858 0.0987,0.075 0.19747,0.1362 0.21938,0.1362 0.0219,0 0.10581,0.059 0.18647,0.1316 0.0806,0.072 0.16951,0.1316 0.19745,0.1316 0.0279,0 0.0832,0.036 0.12291,0.08 0.0397,0.044 0.15847,0.1283 0.26402,0.1877 0.10555,0.059 0.23201,0.1504 0.28103,0.2022 0.049,0.052 0.10555,0.094 0.12561,0.094 0.0201,0 0.11018,0.063 0.20026,0.141 0.26846,0.2311 0.43686,0.3624 0.56061,0.4371 0.15147,0.091 0.17235,0.1268 0.17305,0.2934 6.8e-4,0.1612 -0.0648,0.2384 -0.28094,0.3311 -0.0846,0.036 -0.1856,0.1013 -0.22449,0.1445 -0.0389,0.043 -0.15186,0.1053 -0.25105,0.138 -0.0992,0.033 -0.21071,0.093 -0.2478,0.1335 -0.0371,0.041 -0.1535,0.099 -0.25869,0.1305 -0.10519,0.031 -0.25377,0.097 -0.33019,0.1477 -0.0764,0.05 -0.23786,0.117 -0.35877,0.1484 -0.12092,0.031 -0.26703,0.092 -0.32468,0.134 -0.0577,0.042 -0.20014,0.1016 -0.31664,0.1317 -0.1165,0.03 -0.30023,0.104 -0.40829,0.1642 -0.10805,0.06 -0.27484,0.128 -0.37065,0.151 -0.20337,0.049 -0.63965,0.3253 -0.63965,0.4055 0,0.1074 0.12629,0.2994 0.39222,0.5966 0.14804,0.1655 0.28643,0.3125 0.30754,0.3269 0.0211,0.014 0.11503,0.087 0.20871,0.1616 0.2741,0.218 0.42062,0.3121 0.66745,0.4287 0.12768,0.06 0.24334,0.1277 0.25703,0.1497 0.0137,0.022 0.14771,0.076 0.29781,0.12 0.1501,0.044 0.3253,0.1117 0.38934,0.1505 0.064,0.039 0.23438,0.097 0.37853,0.1291 0.14415,0.032 0.35578,0.099 0.47029,0.1489 0.1145,0.05 0.36745,0.1177 0.56211,0.1511 0.19466,0.033 0.41997,0.087 0.50068,0.119 l 0.14674,0.058 0.68198,-0.6523 c 0.37508,-0.3588 0.68208,-0.665 0.68223,-0.6804 0,-0.015 0.0576,-0.092 0.12758,-0.1692 0.07,-0.078 0.15773,-0.2001 0.19489,-0.2722 0.0372,-0.072 0.11613,-0.1762 0.1755,-0.2313 0.11661,-0.1082 0.13576,-0.1882 0.06,-0.2507 -0.0294,-0.024 -0.37779,-0.044 -0.89901,-0.052 l -0.85105,-0.012 -0.39192,-0.1488 c -0.3149,-0.1196 -0.39921,-0.1676 -0.42906,-0.2444 -0.0571,-0.1469 -0.0111,-0.3663 0.10782,-0.5137 0.0591,-0.073 0.14158,-0.1885 0.18322,-0.256 0.0416,-0.067 0.13106,-0.1851 0.19872,-0.2614 0.0677,-0.076 0.12303,-0.1605 0.12303,-0.1872 0,-0.027 0.0443,-0.09 0.0984,-0.1397 0.0541,-0.05 0.13794,-0.1683 0.18631,-0.2627 0.0484,-0.094 0.11606,-0.1947 0.15043,-0.223 0.0344,-0.028 0.0941,-0.113 0.13267,-0.1882 0.0386,-0.075 0.0983,-0.1598 0.13267,-0.1881 0.0344,-0.028 0.10243,-0.1298 0.15123,-0.2255 0.0488,-0.096 0.11693,-0.1971 0.15141,-0.2256 0.0345,-0.028 0.10423,-0.1331 0.155,-0.232604 0.0508,-0.1 0.10872,-0.1809 0.12877,-0.1809 0.0201,0 0.0728,-0.072 0.1173,-0.1598 0.0445,-0.088 0.13056,-0.2275 0.19131,-0.3102 0.18178,-0.2475 0.29327,-0.4074 0.36337,-0.5211 0.0365,-0.059 0.10395,-0.1607 0.14999,-0.2256 0.046,-0.065 0.12724,-0.1984 0.18044,-0.2967 0.0532,-0.098 0.11319,-0.1786 0.13331,-0.1786 0.0201,0 0.0817,-0.089 0.13684,-0.1973 0.0552,-0.1086 0.14912,-0.253 0.20883,-0.3209 0.0597,-0.068 0.10856,-0.1469 0.10856,-0.1754 0,-0.029 0.0512,-0.1 0.11373,-0.1585 0.0625,-0.059 0.13199,-0.1615 0.15431,-0.2287 0.0223,-0.067 0.0989,-0.1914 0.17017,-0.2761 0.0713,-0.085 0.12959,-0.1754 0.12959,-0.2014 0,-0.026 0.043,-0.093 0.0956,-0.1498 0.0526,-0.056 0.14651,-0.2027 0.20873,-0.3251 0.0622,-0.1225 0.1308,-0.2226 0.15238,-0.2226 0.0216,0 0.0659,-0.063 0.0985,-0.141 0.0326,-0.078 0.10495,-0.2002 0.16081,-0.2726 0.0559,-0.072 0.13267,-0.2025 0.17068,-0.2892 0.038,-0.087 0.0925,-0.1665 0.1211,-0.1774 0.0286,-0.011 0.0927,-0.1112 0.14244,-0.223 0.0498,-0.1117 0.10978,-0.215 0.13339,-0.2295 0.0236,-0.014 0.0933,-0.1254 0.15479,-0.2465 0.0615,-0.121 0.13118,-0.2319 0.15479,-0.2464 0.0236,-0.014 0.0818,-0.1137 0.12934,-0.2205 0.0475,-0.1067 0.11609,-0.2185 0.15236,-0.2484 0.0363,-0.03 0.0988,-0.1307 0.13903,-0.2241 0.0402,-0.093 0.10519,-0.2038 0.14443,-0.2454 0.0392,-0.042 0.0993,-0.1432 0.13346,-0.2256 0.0342,-0.082 0.10055,-0.1922 0.14755,-0.2439 0.047,-0.052 0.11486,-0.1701 0.1508,-0.2632 0.0359,-0.093 0.10409,-0.2115 0.15142,-0.2632 0.0473,-0.052 0.11551,-0.1701 0.15152,-0.2631 0.036,-0.093 0.0974,-0.2033 0.13634,-0.2449 0.039,-0.042 0.0959,-0.1354 0.12661,-0.2082 0.0307,-0.073 0.11664,-0.2224 0.19107,-0.3323 0.0744,-0.1099 0.13534,-0.2221 0.13534,-0.2495 0,-0.027 0.0415,-0.099 0.0922,-0.1585 0.0507,-0.06 0.1214,-0.1838 0.15712,-0.2755 0.0357,-0.092 0.10242,-0.2174 0.14821,-0.2795 0.0458,-0.062 0.12071,-0.1971 0.16648,-0.3003 0.0458,-0.1031 0.11588,-0.222 0.1558,-0.2642 0.0399,-0.042 0.099,-0.1513 0.13138,-0.2423 0.0323,-0.091 0.0978,-0.2175 0.14539,-0.2809 0.0476,-0.063 0.11677,-0.1956 0.15365,-0.2936 0.0369,-0.098 0.084,-0.1886 0.10468,-0.2013 0.0207,-0.013 0.094,-0.146 0.16294,-0.2962 0.0689,-0.1503 0.14325,-0.2842 0.16514,-0.2976 0.0219,-0.014 0.0739,-0.1149 0.11548,-0.2253 0.0416,-0.1105 0.12789,-0.2827 0.19172,-0.3827 0.0638,-0.1 0.11605,-0.2099 0.11605,-0.2443 0,-0.034 0.0455,-0.1284 0.10101,-0.2088 0.0556,-0.08 0.13237,-0.2273 0.1707,-0.3262 0.0383,-0.099 0.11145,-0.2428 0.16249,-0.3196 0.051,-0.077 0.11767,-0.2099 0.14807,-0.2958 0.0304,-0.086 0.0974,-0.2212 0.14892,-0.3008 0.0515,-0.08 0.11459,-0.2123 0.14016,-0.295 0.0256,-0.083 0.0844,-0.2012 0.13062,-0.2632 0.0463,-0.062 0.11335,-0.2007 0.14906,-0.3081 0.0357,-0.1073998 0.0997,-0.2390998 0.14223,-0.2927998 0.0425,-0.054 0.1087,-0.2007 0.14709,-0.3266 0.0384,-0.126 0.10317,-0.2649 0.14395,-0.3087 0.0408,-0.044 0.10141,-0.1721 0.13475,-0.2849 0.0333,-0.1129 0.1014,-0.2651 0.15123,-0.3384 0.0498,-0.073 0.1171,-0.2263 0.14948,-0.34 0.0324,-0.1137 0.102,-0.2648 0.1547,-0.3357 0.0527,-0.071 0.10682,-0.1893 0.12026,-0.2632 0.0263,-0.1445 0.10707,-0.3253 0.18592,-0.4162 0.0269,-0.031 0.0748,-0.1553 0.10634,-0.2762 0.0316,-0.1209 0.0994,-0.2816 0.15059,-0.3572 0.0512,-0.076 0.11381,-0.2264 0.13902,-0.3352 0.0252,-0.1088 0.0876,-0.2589 0.13855,-0.3335 0.051,-0.075 0.11858,-0.2394 0.15022,-0.3662 0.0316,-0.1267 0.0923,-0.2788 0.13475,-0.338 0.0425,-0.059 0.11482,-0.2283 0.16075,-0.376 0.0459,-0.1476 0.14849,-0.3581 0.22791,-0.4678 0.11937,-0.1649 0.16158,-0.1974 0.24349,-0.188 0.083,0.01 0.11011,0.044 0.16695,0.2147 0.0373,0.1118 0.10825,0.2509 0.15762,0.3092 0.0494,0.058 0.11031,0.1698 0.13543,0.2479 0.0251,0.078 0.0855,0.1845 0.13427,0.2365 0.0487,0.052 0.11538,0.1699 0.14812,0.2621 0.0327,0.092 0.0922,0.2021 0.13211,0.2443 0.0399,0.042 0.10987,0.1612 0.15546,0.2643 0.0456,0.1031 0.13158,0.2431 0.19111,0.311 0.0595,0.068 0.10823,0.147 0.10823,0.1757 0,0.029 0.0429,0.1029 0.0954,0.1648 0.0525,0.062 0.13055,0.1916 0.17352,0.2881 0.043,0.096 0.11006,0.2071 0.14908,0.2459 0.039,0.039 0.10716,0.1409 0.15141,0.2271 0.0442,0.086 0.13012,0.2247 0.19083,0.3079 0.0607,0.083 0.11039,0.1713 0.11039,0.1956 0,0.024 0.0443,0.085 0.0984,0.1354 0.0541,0.05 0.13994,0.1673 0.19073,0.2603 0.0508,0.093 0.13001,0.2223 0.17605,0.2872 0.046,0.065 0.11354,0.1665 0.15,0.2256 0.0365,0.059 0.10459,0.1607 0.15141,0.2256 0.0468,0.065 0.11495,0.1665 0.15141,0.2256 0.0956,0.1552 0.23611,0.3536 0.34225,0.4835 0.0507,0.062 0.12731,0.1816 0.17026,0.2657 0.043,0.084 0.10622,0.1760998 0.1406,0.2044998 0.0344,0.028 0.10296,0.1308 0.15242,0.2277 0.0495,0.097 0.11557,0.1861 0.14692,0.198 0.0314,0.012 0.10127,0.1029 0.15538,0.2021 0.10304,0.1889 0.30617,0.4905 0.43803,0.6503 0.0866,0.105 0.20518,0.2736 0.37023,0.5264 0.0608,0.093 0.15563,0.2284 0.21085,0.3008 0.13655,0.179 0.27266,0.3731 0.35234,0.5023 0.0365,0.059 0.1046,0.1607 0.15142,0.2256 0.0468,0.065 0.11495,0.1671 0.15141,0.227 0.0365,0.06 0.11083,0.1615 0.16528,0.2256 0.0544,0.064 0.13412,0.1855 0.17704,0.2695 0.0429,0.084 0.10616,0.1761 0.14053,0.2045 0.0344,0.028 0.10404,0.1329 0.15482,0.2325 0.0508,0.1 0.10669,0.1809 0.12426,0.1809 0.0176,0 0.0852,0.099 0.15032,0.2206 0.0651,0.1214 0.14512,0.2427 0.1778,0.2696 0.0327,0.027 0.0849,0.1096 0.11602,0.1836 0.0311,0.074 0.0967,0.1769 0.1457,0.2286 0.049,0.052 0.11618,0.1593 0.14928,0.2392 0.0331,0.08 0.11133,0.2032 0.17386,0.2739 0.0625,0.071 0.11368,0.1521 0.11368,0.1808 0,0.029 0.0429,0.1029 0.0954,0.1649 0.0525,0.062 0.12824,0.1863 0.16838,0.2764 0.0401,0.09 0.11645,0.2045 0.16958,0.2541 0.12105,0.1129 0.12275,0.2306 0.005,0.3663 -0.0862,0.099 -0.11144,0.1062 -0.44869,0.1183 -0.22756,0.01 -0.47282,-0.01 -0.67521,-0.049 -0.44102,-0.085 -1.15046,-0.1207 -1.22293,-0.061 -0.0582,0.048 -0.0443,0.1329 0.0375,0.2284 0.0266,0.031 0.0815,0.1794 0.12207,0.3297 0.0406,0.1503 0.11663,0.3364 0.169,0.4135 0.0524,0.077 0.11619,0.208 0.14182,0.2907 0.0256,0.083 0.0855,0.2023 0.1331,0.2656 0.0476,0.063 0.11441,0.1816 0.14853,0.2627 0.0341,0.081 0.0933,0.1815 0.13152,0.2232 0.0382,0.042 0.0993,0.1349 0.13584,0.2073 0.0365,0.072 0.12315,0.1992 0.19257,0.282 0.0694,0.083 0.16784,0.2011 0.21873,0.2632 0.44647,0.5442 0.88828,0.991 1.44276,1.4591 0.18737,0.1582 0.38326,0.3283 0.43531,0.3781 0.0521,0.05 0.15087,0.1187 0.2196,0.1531 0.0687,0.034 0.13471,0.088 0.14662,0.1187 0.0119,0.031 0.0919,0.091 0.17785,0.1347 0.0859,0.043 0.21216,0.1271 0.28055,0.1864 0.0684,0.059 0.13974,0.1077 0.15857,0.1077 0.0188,0 0.11296,0.068 0.20918,0.1504 0.0962,0.083 0.19077,0.1504 0.21012,0.1504 0.0413,0 0.48276,0.2869 0.69298,0.4504 0.0803,0.062 0.16844,0.1136 0.19583,0.1136 0.0274,0 0.12642,0.058 0.22009,0.1291 0.0937,0.071 0.22698,0.1581 0.29626,0.1934 0.16057,0.082 0.23287,0.1369 0.82228,0.6239 0.36212,0.2992 0.59041,0.4541 0.89774,0.6091 0.22668,0.1143 0.5019,0.26 0.6116,0.3237 0.14369,0.083 0.20444,0.1024 0.21725,0.068 0.01,-0.026 0.0511,-0.1453 0.0918,-0.2641 0.0407,-0.1188 0.11879,-0.2743 0.17354,-0.3456 0.0548,-0.071 0.13035,-0.2306 0.16799,-0.3541 0.0376,-0.1234 0.11258,-0.282 0.16655,-0.3522 0.054,-0.07 0.13206,-0.2369 0.17353,-0.3703 0.0415,-0.1334 0.11901,-0.3012 0.17231,-0.373 0.0533,-0.072 0.13009,-0.2411 0.17065,-0.3764 0.0406,-0.1352 0.11721,-0.3044 0.17034,-0.3759 0.0531,-0.072 0.13024,-0.2404 0.17135,-0.3752 0.0411,-0.1349 0.12486,-0.3182 0.18611,-0.4074 0.0613,-0.089 0.13002,-0.2516 0.15283,-0.3607 0.0228,-0.1092 0.0998,-0.2884 0.17106,-0.3983 0.0713,-0.1098 0.14815,-0.2886 0.17083,-0.3971 0.0227,-0.1086 0.0932,-0.2753 0.15677,-0.3706 0.0635,-0.095 0.14524,-0.2872 0.18156,-0.4265 0.0363,-0.1393 0.11945,-0.3365 0.18471,-0.4382 0.0653,-0.1017 0.13815,-0.2833 0.16194,-0.4034 0.0238,-0.1202 0.0972,-0.3016 0.16312,-0.4033 0.066,-0.1017 0.14978,-0.309 0.18644,-0.4613 0.0513,-0.213 0.10981,-0.3349 0.2546,-0.5304 0.26007,-0.3511 0.3724,-0.3342 0.50695,0.076 0.0358,0.1092 0.105,0.2457 0.15379,0.3033 0.0488,0.058 0.12151,0.1905 0.16161,0.2953 0.0401,0.1048 0.12382,0.2559 0.18607,0.3359 0.0622,0.08 0.14294,0.2263 0.17933,0.3254 0.0364,0.099 0.10675,0.228 0.15635,0.2865 0.0496,0.059 0.12567,0.189 0.16907,0.2899 0.0434,0.1009 0.11928,0.2257 0.16865,0.2774 0.0494,0.052 0.12256,0.1703 0.16263,0.2635 0.0401,0.093 0.1166,0.2211 0.17005,0.2842 0.0535,0.063 0.13854,0.2068 0.18908,0.3193 0.0505,0.1125 0.13062,0.2384 0.17796,0.2798 0.0473,0.041 0.11756,0.1476 0.15604,0.2361 0.0385,0.089 0.12066,0.2239 0.18265,0.3008 0.062,0.077 0.13761,0.1994 0.16805,0.2722 0.0305,0.073 0.0927,0.1659 0.13829,0.2068 0.0456,0.041 0.12232,0.1516 0.17047,0.2459 0.0481,0.094 0.14852,0.244 0.22303,0.3326 0.0745,0.089 0.13547,0.1832 0.13547,0.2103 0,0.027 0.061,0.1218 0.13548,0.2103 0.0745,0.089 0.17488,0.2383 0.22303,0.3326 0.0481,0.094 0.12527,0.2053 0.17137,0.2467 0.0461,0.041 0.11796,0.1428 0.15967,0.2255 0.0417,0.083 0.11377,0.1927 0.16012,0.2444 0.0464,0.052 0.13228,0.1786 0.19097,0.282 0.0587,0.1034 0.16367,0.2515 0.23331,0.3291 0.0696,0.078 0.12661,0.1633 0.12661,0.1904 0,0.027 0.0527,0.099 0.11703,0.1597 0.0644,0.061 0.15159,0.1781 0.19383,0.2608 0.0422,0.083 0.13175,0.218 0.1989,0.3008 0.0672,0.083 0.15249,0.214404 0.18963,0.292604 0.0371,0.078 0.0993,0.1592 0.13819,0.1799 0.0389,0.021 0.10706,0.1089 0.15157,0.1961 0.0445,0.087 0.12963,0.214 0.18916,0.2818 0.0595,0.068 0.14485,0.1946 0.18962,0.2819 0.0448,0.087 0.11331,0.1811 0.15234,0.2084 0.039,0.027 0.11138,0.1288 0.1608,0.2256 0.0494,0.097 0.12761,0.2098 0.17378,0.2512 0.0462,0.041 0.13342,0.1724 0.1939,0.2913 0.0605,0.119 0.12603,0.2162 0.14567,0.2162 0.0196,0 0.0818,0.08 0.13806,0.1786 0.0563,0.098 0.1489,0.2294 0.2058,0.2914 0.0569,0.062 0.14651,0.1985 0.19913,0.3032 0.0526,0.1047 0.12387,0.2136 0.15835,0.242 0.0345,0.028 0.1021,0.1289 0.15027,0.2232 0.0482,0.094 0.12536,0.2054 0.17153,0.2468 0.0462,0.041 0.13178,0.1692 0.19026,0.2842 0.0585,0.115 0.13603,0.2334 0.17232,0.2632 0.0363,0.03 0.10383,0.1387 0.15008,0.2421 0.0463,0.1034 0.12248,0.2219 0.1694,0.2632 0.0469,0.041 0.13174,0.1767 0.1885,0.3008 0.0568,0.1241 0.14022,0.2584 0.18546,0.2984 0.0452,0.04 0.11654,0.1499 0.15844,0.244 0.0419,0.094 0.10855,0.2052 0.14811,0.2471 0.0396,0.042 0.11354,0.1689 0.16441,0.2824 0.0509,0.11349 0.1369,0.24739 0.19119,0.29759 0.16493,0.1523 0.12386,0.3783 -0.0893,0.4911 -0.1381,0.073 -0.89331,0.066 -1.30723,-0.012 -0.38439,-0.073 -1.16754,-0.1237 -1.31929,-0.086 -0.12505,0.031 -0.13422,0.1584 -0.0217,0.3006 0.0432,0.054 0.11696,0.2421 0.16393,0.4168 0.047,0.1748 0.13042,0.3822 0.18543,0.4611 0.055,0.079 0.13353,0.2401 0.17451,0.3584 0.041,0.1183 0.1245,0.2788 0.18561,0.3566 0.0611,0.078 0.12898,0.1955 0.15081,0.2613 0.0218,0.066 0.10912,0.207 0.19395,0.3136 0.0848,0.1066 0.15424,0.219 0.15424,0.2498 0,0.031 0.0681,0.1229 0.15141,0.2048 0.0833,0.082 0.15141,0.165 0.15141,0.1847 0,0.02 0.0809,0.1277 0.1798,0.2402 0.0989,0.1125 0.31608,0.3604 0.48263,0.5509 0.29517,0.3377 0.87238,0.8778 1.34318,1.2569 0.12841,0.1034 0.3082,0.2599 0.39952,0.3478 0.0913,0.088 0.18367,0.1598 0.2052,0.1598 0.0215,0 0.10309,0.057 0.18122,0.1265 0.0781,0.07 0.19387,0.1527 0.25721,0.1849 0.0633,0.032 0.19929,0.1275 0.30213,0.2119 0.10283,0.084 0.20618,0.1535 0.22966,0.1535 0.0235,0 0.11747,0.064 0.20888,0.1415 0.0914,0.078 0.22582,0.1687 0.29869,0.2018 0.0729,0.033 0.20649,0.1217 0.29694,0.1968 0.0905,0.075 0.18835,0.1366 0.21755,0.1366 0.0292,0 0.11701,0.057 0.19514,0.126701 0.0781,0.07 0.23575,0.1735 0.35025,0.2306 0.11451,0.057 0.26415,0.1523 0.33253,0.2117 0.0684,0.059 0.14871,0.1078 0.17849,0.1078 0.0298,0 0.1101,0.049 0.17848,0.1083 0.0684,0.06 0.22655,0.1631 0.35146,0.2301 0.12492,0.067 0.28307,0.1705 0.35146,0.2301 0.0684,0.06 0.14349,0.1083 0.1669,0.1083 0.0234,0 0.12986,0.065 0.23657,0.1454 0.10671,0.08 0.26157,0.1799 0.34412,0.222 0.0825,0.042 0.1882,0.117 0.23478,0.1666 0.12424,0.1323 0.32642,0.1035 0.39287,-0.056 0.0266,-0.064 0.10346,-0.1876 0.17087,-0.2753 0.0674,-0.088 0.15157,-0.2158 0.18698,-0.2847 0.0354,-0.069 0.0889,-0.1393 0.11888,-0.1567 0.03,-0.017 0.0852,-0.102 0.12281,-0.188 0.0376,-0.086 0.12147,-0.2221 0.18643,-0.3025 l 0.11811,-0.1462 0,4.987 0,4.9869 -0.19331,0 c -0.13901,0 -0.18827,0.013 -0.17533,0.047 0.0612,0.1598 0.30476,1.1801 0.3837,1.6073 0.18781,1.0162 0.2291,1.5142 0.2291,2.7635 0,0.8908 -0.016,1.294 -0.0677,1.7107 -0.19341,1.5588 -0.57213,2.9718 -1.16386,4.3426 l -0.25968,0.6015 -0.15892,6.4105 c -0.0874,3.5258 -0.16879,6.422 -0.18086,6.436 -0.0121,0.014 -0.20033,-0.091 -0.41836,-0.2329 -0.21803,-0.1421 -0.39899,-0.2551 -0.40213,-0.2511 -0.003,0 -0.16955,0.7264 -0.36978,1.6052 -0.24515,1.076 -0.80344,3.879 -1.70916,8.5812 l -1.34509,6.9833 -0.32676,0.6773 c -0.22377,0.4639 -0.34574,0.6769 -0.387,0.676 -0.0331,-8e-4 -0.34906,-0.1084 -0.70204,-0.2392 l -0.64179,-0.2377 -0.17901,0.6997 c -0.0985,0.3849 -0.22298,0.8351 -0.27671,1.0005 -0.0537,0.1655 -0.1406,0.5292 -0.19305,0.8084 -0.41977,2.2344 -1.38689,4.4877 -2.66265,6.2037 -0.14605,0.196402 -0.43642,0.638102 -0.64528,0.981402 -0.43428,0.7139 -0.81221,1.2565 -1.30675,1.876 -0.2807,0.3517 -0.37603,0.5061 -0.51054,0.8272 -0.25318,0.6043 -0.71904,1.503 -1.08172,2.0867 -0.17989,0.2895 -0.45246,0.7717 -0.60572,1.0715 -0.15326,0.2999 -0.42603,0.7821 -0.60614,1.0716 -0.18012,0.2895 -0.4558,0.7801 -0.61263,1.0903 -0.31943,0.6318 -0.7355,1.3355 -1.08926,1.8423 -0.12991,0.1861 -0.3258,0.5161 -0.43531,0.7332 -0.42947,0.8515 -1.06602,1.82 -1.73813,2.6444 -0.1995,0.2448 -0.46037,0.6153 -0.57971,0.8234 -0.33133,0.5778 -0.71558,1.1751 -1.01029,1.5703 -0.14647,0.1965 -0.33311,0.4841 -0.41475,0.6392 -0.24428,0.4641 -0.7414,1.2588 -1.07401,1.7171 -0.17171,0.2365 -0.35281,0.5011 -0.40244,0.5878 -0.55578,0.9718 -1.0167,1.6697 -1.55679,2.3573 -0.13806,0.1758 -0.31656,0.438 -0.39666,0.5828 -1.01407,1.8325 -2.55628,3.6028 -4.21155,4.8343 -0.20297,0.1511 -0.57471,0.4709 -0.82608,0.7108 -0.65665,0.6267 -1.47669,1.2666 -2.32515,1.8145 -0.17696,0.1143 -0.48247,0.3455 -0.6789,0.5139 -0.69706,0.5975 -1.52907,1.1807 -2.37363,1.6636 l -0.46495,0.2659 -0.31637,0.6442 c -0.78253,1.5934 -1.67721,2.8327 -2.9775,4.1242 -0.75335,0.7483 -1.30421,1.212 -2.0841,1.7543 -0.90761,0.6311 -2.04398,1.2414 -3.06609,1.6465 -0.26024,0.1031 -0.59799,0.26 -0.75057,0.3485 -0.15257,0.089 -0.43363,0.2387 -0.62457,0.3338 -0.30231,0.1505 -0.41325,0.2366 -0.85863,0.6663 -1.36816,1.3198 -2.97393,2.3587 -4.83652,3.1291 -0.4188,0.1732 -0.63516,0.2851 -0.74412,0.3847 -0.76611,0.7006 -2.13229,1.6045 -3.27155,2.1644 -0.311,0.1529 -0.66504,0.3449 -0.78675,0.4268 -1.62968,1.0956 -3.67725,1.9362 -5.64971,2.3194 -0.41399,0.08 -0.47701,0.1048 -0.86854,0.3356 -0.54454,0.3211 -1.26285,0.6779 -1.90179,0.9447 -0.2791,0.1166 -0.6352,0.2848 -0.79134,0.3739 -0.93315,0.5326 -2.13911,1.0468 -3.1791,1.3557 -0.24461,0.073 -0.68317,0.2321 -0.97456,0.3543 -1.3037,0.5471 -2.80093,0.9408 -4.21185,1.1078 -0.23942,0.028 -0.69933,0.1207 -1.02203,0.2052 -1.09729,0.2876 -2.16133,0.443 -3.27428,0.4784 -0.79501,0.025 -1.73233,0.1593 -2.4983,0.3571 -0.81139,0.2095 -1.01932,0.2541 -1.74193,0.3736 -0.35431,0.059 -0.73078,0.1391 -0.8366,0.1791 -0.10582,0.04 -0.35249,0.1829 -0.54817,0.3178 -1.72949,1.1922 -3.86012,2.0659 -5.97693,2.4509 -1.04427,0.19 -1.50905,0.2253 -2.99039,0.2273 -0.7599,0.001 -1.60307,-0.01 -1.87372,-0.014 -0.27065,-0.01 -0.98607,-0.01 -1.58982,0.01 -0.60376,0.012 -1.16587,0.015 -1.24915,0.01 z"
         style="fill:#000000;fill-opacity:0.81092434;filter:url(#filter4631)" />
      <ellipse
         inkscape:export-ydpi="168.59779"
         inkscape:export-xdpi="168.59779"
         ry="142.31375"
         rx="141.10446"
         style="fill:none;stroke:#dc0067;stroke-width:28.39984512;stroke-miterlimit:4;stroke-dasharray:none;stroke-opacity:1"
         cx="-508.26529"
         cy="48.799652"
         stroke-miterlimit="4"
         id="circle5309-5-8-5-2" />
      <text
         inkscape:export-ydpi="168.59779"
         inkscape:export-xdpi="168.59779"
         sodipodi:linespacing="125%"
         id="text4166-5-0-3-1-43"
         y="65.33316"
         x="-508.76642"
         style="font-style:normal;font-variant:normal;font-weight:bold;font-stretch:normal;font-size:27.36867142px;line-height:125%;font-family:NanumBarunGothic;-inkscape-font-specification:'NanumBarunGothic Bold';text-align:center;letter-spacing:0px;word-spacing:0px;text-anchor:middle;fill:#ffffff;fill-opacity:1;stroke:none;stroke-width:1px;stroke-linecap:butt;stroke-linejoin:miter;stroke-opacity:1"
         xml:space="preserve"><tspan
           id="tspan4353-2"
           style="font-style:normal;font-variant:normal;font-weight:bold;font-stretch:normal;font-family:'DejaVu Sans';-inkscape-font-specification:'DejaVu Sans Bold'"
           y="65.33316"
           x="-508.76642"
           sodipodi:role="line">Freifunk-</tspan><tspan
           id="tspan4357-1"
           style="font-style:normal;font-variant:normal;font-weight:bold;font-stretch:normal;font-family:'DejaVu Sans';-inkscape-font-specification:'DejaVu Sans Bold'"
           y="99.543999"
           x="-508.76642"
           sodipodi:role="line">WW.de</tspan></text>
      <ellipse
         inkscape:export-ydpi="168.59779"
         inkscape:export-xdpi="168.59779"
         ry="109.56143"
         rx="107.8508"
         style="fill:#009eee;fill-opacity:0;stroke:#de2c68;stroke-width:5.24933243;stroke-miterlimit:4;stroke-dasharray:none;stroke-opacity:1"
         cx="-508.26529"
         cy="49.537292"
         stroke-miterlimit="4"
         id="circle5307-3-9-3-54-6" />
      <polygon
         inkscape:export-ydpi="168.59779"
         inkscape:export-xdpi="168.59779"
         style="fill:#ffb400;fill-opacity:1"
         points="31,44 26,44 30,48 22,48 22,52 30,52 26,56 31,56 37,50 "
         transform="matrix(4.4545672,0,0,4.2171613,-710.18215,-86.742998)"
         id="polygon5311-6-8-9-80" />
      <polygon
         inkscape:export-ydpi="168.59779"
         inkscape:export-xdpi="168.59779"
         style="fill:#ffb400;fill-opacity:1"
         points="26,56 31,56 37,50 31,44 26,44 30,48 22,48 22,52 30,52 "
         transform="matrix(-4.4545672,0,0,-4.2171613,-292.87954,222.97756)"
         id="polygon5311-6-8-9-80-3" />
    </g>
  </g>
</svg>
